<svg width="30" height="31" viewBox="0 0 30 31" fill="none" xmlns="http://www.w3.org/2000/svg">
<path d="M11.1896 4.77734H6.2127C5.14383 4.77734 4.27734 5.64383 4.27734 6.7127V11.6896C4.27734 12.7585 5.14383 13.625 6.2127 13.625H11.1896C12.2585 13.625 13.125 12.7585 13.125 11.6896V6.7127C13.125 5.64383 12.2585 4.77734 11.1896 4.77734Z" fill="#0180EA" stroke="#0180EA" stroke-width="0.75" stroke-linecap="round" stroke-linejoin="round"/>
<path d="M23.7873 4.77734H18.8104C17.7415 4.77734 16.875 5.64383 16.875 6.7127V11.6896C16.875 12.7585 17.7415 13.625 18.8104 13.625H23.7873C24.8562 13.625 25.7227 12.7585 25.7227 11.6896V6.7127C25.7227 5.64383 24.8562 4.77734 23.7873 4.77734Z" fill="#0180EA" stroke="#0180EA" stroke-width="0.75" stroke-linecap="round" stroke-linejoin="round"/>
<path d="M11.1896 17.375H6.2127C5.14383 17.375 4.27734 18.2415 4.27734 19.3104V24.2873C4.27734 25.3562 5.14383 26.2227 6.2127 26.2227H11.1896C12.2585 26.2227 13.125 25.3562 13.125 24.2873V19.3104C13.125 18.2415 12.2585 17.375 11.1896 17.375Z" fill="#0180EA" stroke="#0180EA" stroke-width="0.75" stroke-linecap="round" stroke-linejoin="round"/>
<path d="M23.7873 17.375H18.8104C17.7415 17.375 16.875 18.2415 16.875 19.3104V24.2873C16.875 25.3562 17.7415 26.2227 18.8104 26.2227H23.7873C24.8562 26.2227 25.7227 25.3562 25.7227 24.2873V19.3104C25.7227 18.2415 24.8562 17.375 23.7873 17.375Z" fill="#0180EA" stroke="#0180EA" stroke-width="0.75" stroke-linecap="round" stroke-linejoin="round"/>
</svg>
