<svg width="30" height="31" viewBox="0 0 30 31" fill="none" xmlns="http://www.w3.org/2000/svg">
<path d="M16.8125 3.66583C16.3053 3.23835 15.6633 3.00391 15 3.00391C14.3367 3.00391 13.6947 3.23835 13.1875 3.66583L4.75 10.7846C4.43682 11.0485 4.18507 11.3777 4.01235 11.749C3.83962 12.1204 3.75008 12.525 3.75 12.9346V25.1871C3.75 26.3958 4.73 27.3746 5.9375 27.3746H15.2812C15.0955 26.9841 14.9994 26.557 15 26.1246V18.6246C15 17.0333 16.2575 15.9283 17.5212 15.2971C18.86 14.6271 20.6213 14.2496 22.5 14.2496C23.8475 14.2496 25.135 14.4446 26.25 14.8008V12.9333C26.2499 12.5238 26.1604 12.1192 25.9877 11.7478C25.8149 11.3764 25.5632 11.0473 25.25 10.7833L16.8125 3.66583ZM26.25 22.4471C26.6875 22.3071 27.1 22.1408 27.4788 21.9521C27.9359 21.7273 28.363 21.4459 28.75 21.1146V26.1246C28.75 27.8496 25.9513 29.2496 22.5 29.2496C19.9375 29.2496 17.735 28.4783 16.77 27.3746C16.435 26.9921 16.25 26.5696 16.25 26.1246V21.1146C16.6375 21.4521 17.0788 21.7308 17.5212 21.9521C17.6888 22.0358 17.8625 22.1146 18.0425 22.1896C19.3025 22.7096 20.8575 22.9996 22.5 22.9996C23.8475 22.9996 25.135 22.8046 26.25 22.4471ZM16.25 18.6246C16.25 18.1796 16.435 17.7571 16.77 17.3746C17.735 16.2708 19.9375 15.4996 22.5 15.4996C23.9075 15.4996 25.205 15.7321 26.25 16.1246C27.7675 16.6946 28.75 17.6021 28.75 18.6246C28.75 19.6471 27.7675 20.5546 26.25 21.1246C25.205 21.5171 23.9075 21.7496 22.5 21.7496C19.0487 21.7496 16.25 20.3496 16.25 18.6246Z" fill="#0180EA"/>
</svg>
