<svg width="57" height="56" viewBox="0 0 57 56" fill="none" xmlns="http://www.w3.org/2000/svg">
<rect width="56.37" height="56" rx="15" fill="#0180EA" fill-opacity="0.7"/>
<path d="M28.7475 15.5391C28.2403 15.1116 27.5983 14.8772 26.935 14.8772C26.2717 14.8772 25.6297 15.1116 25.1225 15.5391L16.685 22.6579C16.3718 22.9218 16.1201 23.251 15.9473 23.6223C15.7746 23.9937 15.6851 24.3983 15.685 24.8079V37.0604C15.685 38.2691 16.665 39.2479 17.8725 39.2479H27.2162C27.0305 38.8574 26.9344 38.4303 26.935 37.9979V30.4979C26.935 28.9066 28.1925 27.8016 29.4562 27.1704C30.795 26.5004 32.5562 26.1229 34.435 26.1229C35.7825 26.1229 37.07 26.3179 38.185 26.6741V24.8066C38.1849 24.397 38.0954 23.9924 37.9227 23.6211C37.7499 23.2497 37.4982 22.9206 37.185 22.6566L28.7475 15.5391ZM38.185 34.3204C38.6225 34.1804 39.035 34.0141 39.4137 33.8254C39.8709 33.6006 40.298 33.3192 40.685 32.9879V37.9979C40.685 39.7229 37.8862 41.1229 34.435 41.1229C31.8725 41.1229 29.67 40.3516 28.705 39.2479C28.37 38.8654 28.185 38.4429 28.185 37.9979V32.9879C28.5725 33.3254 29.0137 33.6041 29.4562 33.8254C29.6237 33.9091 29.7975 33.9879 29.9775 34.0629C31.2375 34.5829 32.7925 34.8729 34.435 34.8729C35.7825 34.8729 37.07 34.6779 38.185 34.3204ZM28.185 30.4979C28.185 30.0529 28.37 29.6304 28.705 29.2479C29.67 28.1441 31.8725 27.3729 34.435 27.3729C35.8425 27.3729 37.14 27.6054 38.185 27.9979C39.7025 28.5679 40.685 29.4754 40.685 30.4979C40.685 31.5204 39.7025 32.4279 38.185 32.9979C37.14 33.3904 35.8425 33.6229 34.435 33.6229C30.9837 33.6229 28.185 32.2229 28.185 30.4979Z" fill="white"/>
</svg>
