<svg width="180" height="39" viewBox="0 0 180 39" fill="none" xmlns="http://www.w3.org/2000/svg">
<path d="M32.3236 4.77584C31.8514 4.77584 31.3897 4.63579 30.997 4.3734C30.6043 4.11101 30.2982 3.73807 30.1175 3.30173C29.9368 2.8654 29.8895 2.38527 29.9816 1.92206C30.0737 1.45885 30.3012 1.03336 30.6351 0.699406C30.9691 0.365449 31.3946 0.138023 31.8578 0.0458842C32.321 -0.0462541 32.8011 0.00103464 33.2375 0.18177C33.6738 0.362506 34.0467 0.668572 34.3091 1.06126C34.5715 1.45395 34.7116 1.91563 34.7116 2.38792C34.7116 3.02123 34.46 3.62861 34.0122 4.07643C33.5643 4.52425 32.957 4.77584 32.3236 4.77584ZM32.3236 0.823421C32.0142 0.823421 31.7117 0.915177 31.4545 1.08709C31.1972 1.259 30.9966 1.50334 30.8782 1.78921C30.7598 2.07509 30.7288 2.38965 30.7892 2.69314C30.8496 2.99662 30.9986 3.27539 31.2174 3.49419C31.4362 3.71298 31.7149 3.86199 32.0184 3.92235C32.3219 3.98272 32.6365 3.95174 32.9224 3.83333C33.2082 3.71491 33.4526 3.51439 33.6245 3.25711C33.7964 2.99983 33.8881 2.69735 33.8881 2.38792C33.8881 1.97299 33.7233 1.57505 33.4299 1.28165C33.1365 0.988251 32.7386 0.823421 32.3236 0.823421ZM2.51585 29.3961C2.04356 29.3961 1.58188 29.256 1.18919 28.9937C0.796501 28.7313 0.490436 28.3583 0.3097 27.922C0.128964 27.4857 0.0816756 27.0055 0.173814 26.5423C0.265952 26.0791 0.493379 25.6536 0.827336 25.3197C1.16129 24.9857 1.58678 24.7583 2.04999 24.6661C2.5132 24.574 2.99333 24.6213 3.42966 24.802C3.866 24.9828 4.23894 25.2888 4.50133 25.6815C4.76372 26.0742 4.90377 26.5359 4.90377 27.0082C4.90377 27.3218 4.842 27.6323 4.722 27.922C4.60199 28.2117 4.4261 28.4749 4.20436 28.6967C3.98262 28.9184 3.71938 29.0943 3.42966 29.2143C3.13995 29.3343 2.82943 29.3961 2.51585 29.3961ZM2.51585 25.4437C2.20642 25.4437 1.90394 25.5354 1.64666 25.7073C1.38938 25.8792 1.18885 26.1236 1.07044 26.4095C0.952028 26.6953 0.921045 27.0099 0.981412 27.3134C1.04178 27.6169 1.19078 27.8956 1.40958 28.1144C1.62838 28.3332 1.90715 28.4822 2.21063 28.5426C2.51411 28.603 2.82868 28.572 3.11456 28.4536C3.40043 28.3352 3.64477 28.1346 3.81668 27.8774C3.98859 27.6201 4.08035 27.3176 4.08035 27.0082C4.08035 26.5932 3.91552 26.1953 3.62212 25.9019C3.32872 25.6085 2.93078 25.4437 2.51585 25.4437ZM36.099 9.49238C35.7245 9.49238 35.3583 9.38131 35.0468 9.17321C34.7354 8.96511 34.4927 8.66933 34.3493 8.32327C34.206 7.97721 34.1685 7.59642 34.2416 7.22904C34.3146 6.86167 34.495 6.52422 34.7599 6.25935C35.0247 5.99449 35.3622 5.81412 35.7295 5.74104C36.0969 5.66797 36.4777 5.70547 36.8238 5.84882C37.1698 5.99216 37.4656 6.2349 37.6737 6.54634C37.8818 6.85779 37.9929 7.22395 37.9929 7.59852C37.9929 8.1008 37.7934 8.58252 37.4382 8.93768C37.083 9.29285 36.6013 9.49238 36.099 9.49238ZM36.099 6.52807C35.8873 6.52807 35.6803 6.59085 35.5043 6.70848C35.3283 6.8261 35.1911 6.99328 35.1101 7.18888C35.029 7.38448 35.0078 7.59971 35.0491 7.80735C35.0904 8.015 35.1924 8.20573 35.3421 8.35544C35.4918 8.50514 35.6825 8.60709 35.8902 8.6484C36.0978 8.6897 36.3131 8.6685 36.5087 8.58748C36.7043 8.50646 36.8714 8.36926 36.9891 8.19323C37.1067 8.01719 37.1695 7.81023 37.1695 7.59852C37.1695 7.31462 37.0567 7.04235 36.8559 6.8416C36.6552 6.64085 36.3829 6.52807 36.099 6.52807ZM35.6873 36.8299C35.3127 36.8299 34.9466 36.7188 34.6351 36.5107C34.3237 36.3027 34.081 36.0069 33.9376 35.6608C33.7943 35.3148 33.7568 34.934 33.8298 34.5666C33.9029 34.1992 34.0833 33.8618 34.3481 33.5969C34.613 33.332 34.9505 33.1517 35.3178 33.0786C35.6852 33.0055 36.066 33.043 36.4121 33.1864C36.7581 33.3297 37.0539 33.5724 37.262 33.8839C37.4701 34.1953 37.5812 34.5615 37.5812 34.9361C37.5812 35.4383 37.3816 35.9201 37.0265 36.2752C36.6713 36.6304 36.1896 36.8299 35.6873 36.8299ZM35.6873 33.8656C35.4756 33.8656 35.2686 33.9284 35.0926 34.046C34.9166 34.1636 34.7794 34.3308 34.6983 34.5264C34.6173 34.722 34.5961 34.9372 34.6374 35.1449C34.6787 35.3525 34.7807 35.5433 34.9304 35.693C35.0801 35.8427 35.2708 35.9446 35.4785 35.9859C35.6861 36.0272 35.9014 36.006 36.097 35.925C36.2926 35.844 36.4597 35.7068 36.5774 35.5308C36.695 35.3547 36.7578 35.1478 36.7578 34.9361C36.7578 34.6522 36.645 34.3799 36.4442 34.1791C36.2435 33.9784 35.9712 33.8656 35.6873 33.8656ZM10.9897 26.6475C10.3323 26.6474 9.67701 26.5725 9.03651 26.4244C8.14557 26.2177 6.89562 25.773 6.00303 24.8343C4.55711 23.3135 4.67486 21.2591 5.01493 19.2647C6.01044 13.472 10.2609 9.92962 10.6142 9.64719C10.8736 9.39604 13.6773 6.77839 18.426 5.8998C18.4797 5.8885 18.5351 5.88806 18.589 5.89851C18.6429 5.90896 18.6942 5.93008 18.7398 5.96064C18.7855 5.9912 18.8245 6.03057 18.8547 6.07644C18.8848 6.12231 18.9055 6.17376 18.9155 6.22775C18.9255 6.28173 18.9246 6.33718 18.9129 6.39081C18.9011 6.44444 18.8788 6.49519 18.8471 6.54005C18.8155 6.58491 18.7752 6.62299 18.7286 6.65205C18.682 6.6811 18.63 6.70054 18.5758 6.70923C13.9383 7.56805 11.2037 10.2219 11.1766 10.2499C11.1662 10.2602 11.1552 10.2698 11.1436 10.2788C11.1008 10.3133 6.79187 13.8088 5.83011 19.4055C5.51968 21.1907 5.4044 23.0088 6.60001 24.267C7.61858 25.3375 10.0205 26.1683 12.2742 25.7014C14.066 25.3309 15.6906 24.0974 17.386 21.8206C19.5648 18.895 23.0297 16.9419 26.2122 16.8447C28.8472 16.7624 31.2483 17.9151 33.1471 20.1623C33.2166 20.2459 33.2502 20.3536 33.2405 20.4619C33.2309 20.5703 33.1788 20.6704 33.0956 20.7404C33.0124 20.8104 32.9049 20.8447 32.7965 20.8357C32.6881 20.8268 32.5877 20.7753 32.5171 20.6925C30.7616 18.6126 28.6471 17.5957 26.2377 17.6681C23.2965 17.757 20.081 19.5801 18.0464 22.3122C16.2233 24.7602 14.4423 26.0934 12.4413 26.5116C11.9633 26.6057 11.4769 26.6512 10.9897 26.6475Z" fill="white"/>
<path d="M28.4749 33.8108C27.9486 33.8177 27.436 33.6433 27.0232 33.3168C26.5736 32.9635 26.3307 32.5386 26.3019 32.0528C26.2492 31.1734 26.9565 30.4554 26.9861 30.4257C29.6623 27.8402 30.9699 25.2744 30.876 22.7943C30.7623 19.7888 28.5918 17.9542 28.5704 17.9361C28.5288 17.9016 28.4944 17.8592 28.4691 17.8113C28.4439 17.7635 28.4283 17.7111 28.4233 17.6572C28.4183 17.6034 28.4239 17.549 28.4399 17.4974C28.4559 17.4457 28.4819 17.3976 28.5165 17.356C28.551 17.3144 28.5934 17.28 28.6413 17.2547C28.6891 17.2295 28.7415 17.2139 28.7954 17.2089C28.8492 17.2039 28.9035 17.2095 28.9552 17.2255C29.0069 17.2415 29.0549 17.2675 29.0966 17.3021C29.197 17.3844 31.5718 19.3936 31.6994 22.763C31.8023 25.4861 30.4124 28.2602 27.5683 31.0096C27.4333 31.1471 27.0981 31.5859 27.1253 32.0067C27.1401 32.2496 27.2735 32.4662 27.5329 32.6696C28.5515 33.4699 30.0369 32.481 30.0517 32.4711C30.0644 32.4621 30.0776 32.4539 30.0913 32.4464C32.2437 31.3142 35.152 28.6949 36.2669 25.0422C36.6786 23.6803 37.5309 20.1017 36.4686 16.2802C35.3579 12.285 32.5236 9.39807 28.0459 7.69936C26.8288 7.23372 25.5686 6.88977 24.2837 6.67255C24.2289 6.66546 24.176 6.6474 24.1283 6.61944C24.0806 6.59148 24.0391 6.55421 24.0061 6.50984C23.9731 6.46546 23.9494 6.41491 23.9364 6.36117C23.9234 6.30744 23.9213 6.25164 23.9303 6.1971C23.9393 6.14255 23.9592 6.09039 23.9889 6.0437C24.0185 5.99702 24.0572 5.95678 24.1027 5.92538C24.1482 5.89398 24.1996 5.87207 24.2537 5.86095C24.3079 5.84983 24.3637 5.84973 24.4179 5.86066C25.7569 6.08667 27.0701 6.44525 28.3382 6.93111C30.862 7.88875 32.9205 9.23669 34.4562 10.9296C35.7812 12.3963 36.7425 14.1542 37.2624 16.0612C38.3823 20.0885 37.4897 23.8524 37.0541 25.2835C35.8725 29.1684 32.788 31.9532 30.4972 33.1669C30.3383 33.2682 29.4646 33.8108 28.4749 33.8108Z" fill="white"/>
<path d="M16.8973 10.0027C16.8143 10.0026 16.7333 9.97746 16.6648 9.93056C16.5964 9.88365 16.5437 9.81717 16.5137 9.73981C16.4837 9.66245 16.4778 9.57784 16.4967 9.49706C16.5157 9.41628 16.5585 9.34309 16.6198 9.28711C17.0208 8.92874 17.4657 8.62273 17.9438 8.37641C17.9755 7.21458 18.159 6.06189 18.4898 4.94769C19.2662 2.42061 20.769 0.894814 22.8366 0.534979C23.6542 0.392527 25.1109 0.355474 25.6724 1.70588C26.4069 3.47212 25.0252 6.60358 23.4179 7.74155C23.3561 7.78578 23.283 7.81174 23.2071 7.81648C23.1668 7.81648 19.1361 8.10468 17.1748 9.89479C17.099 9.9641 17 10.0026 16.8973 10.0027ZM23.5983 1.28758C23.3897 1.28946 23.1818 1.30902 22.9766 1.34605C19.4984 1.95126 18.8916 6.36067 18.7862 7.98528C20.5887 7.25326 22.5212 7.04741 23.0301 7.00459C23.6468 6.52783 24.2652 5.64595 24.6514 4.67019C25.0689 3.62445 25.166 2.6347 24.9108 2.02208C24.7058 1.53296 24.2677 1.28758 23.5983 1.28758ZM20.7805 24.5517C19.5034 24.5517 17.9941 23.944 17.332 22.2132C17.2948 22.1116 17.2991 21.9994 17.3439 21.9009C17.3888 21.8025 17.4706 21.7256 17.5716 21.687C17.6727 21.6483 17.7849 21.651 17.884 21.6945C17.9831 21.738 18.0611 21.8187 18.1011 21.9192C18.7862 23.7118 20.4701 23.7529 20.9699 23.7225C22.0403 23.6583 22.9757 23.0992 23.1454 22.4215C23.2714 21.9151 23.2277 21.5454 23.007 21.3239C22.7147 21.0258 22.0683 20.9385 21.3602 21.1015C20.1251 21.3864 18.7812 21.2547 18.7253 21.2489C18.6166 21.238 18.5168 21.1844 18.4476 21.0998C18.3785 21.0153 18.3459 20.9067 18.3568 20.7981C18.3677 20.6895 18.4213 20.5896 18.5059 20.5205C18.5904 20.4514 18.699 20.4187 18.8076 20.4296C18.8307 20.4296 20.079 20.5523 21.1749 20.2995C22.1853 20.0657 23.0894 20.2337 23.5941 20.7466C23.8914 21.0497 24.1936 21.6203 23.9433 22.6216C23.6822 23.6657 22.4792 24.457 21.0185 24.5443C20.9403 24.5492 20.8612 24.5517 20.7805 24.5517ZM6.32867 16.6477C6.26244 16.6477 6.19717 16.6318 6.1384 16.6013C6.07962 16.5708 6.02909 16.5265 5.99107 16.4723C4.89757 14.9127 4.51632 13.3029 4.94368 12.0546C5.20059 11.3094 5.7284 10.7651 6.3929 10.5634C7.19162 10.3164 7.838 10.3757 8.31394 10.7281C9.01137 11.2444 9.01878 12.1913 9.01878 12.2308C9.01878 12.34 8.97541 12.4447 8.8982 12.522C8.82099 12.5992 8.71627 12.6425 8.60707 12.6425C8.49788 12.6425 8.39316 12.5992 8.31595 12.522C8.23874 12.4447 8.19536 12.34 8.19536 12.2308C8.19536 12.2177 8.18219 11.6495 7.82071 11.3844C7.56545 11.1974 7.16197 11.1851 6.63334 11.3473C6.22163 11.4725 5.89226 11.8265 5.72181 12.3198C5.37844 13.3153 5.72181 14.655 6.66216 15.9963C6.70538 16.058 6.73087 16.1303 6.73584 16.2055C6.74081 16.2806 6.72507 16.3557 6.69035 16.4225C6.65562 16.4893 6.60323 16.5453 6.53888 16.5845C6.47453 16.6236 6.40068 16.6443 6.32538 16.6444L6.32867 16.6477ZM27.3605 38.577C26.8742 38.5868 26.3958 38.4536 25.9845 38.1941C25.7112 38.0142 25.4785 37.779 25.3015 37.5037C25.1245 37.2285 25.0071 36.9192 24.9569 36.5958C24.8902 36.0631 24.6909 35.4883 23.1585 35.4076C22.2231 35.3582 21.487 34.8848 21.1898 34.1396C20.8233 33.2198 21.1749 32.1008 22.1532 31.0707C24.0001 29.1266 27.9467 29.4782 28.1139 29.4947C28.22 29.5081 28.3168 29.5623 28.3836 29.6459C28.4505 29.7294 28.4822 29.8357 28.472 29.9422C28.4618 30.0487 28.4106 30.1471 28.3291 30.2165C28.2477 30.2859 28.1424 30.3208 28.0357 30.314C27.9986 30.314 24.3204 29.9846 22.7501 31.638C22.0132 32.4137 21.7159 33.2346 21.9547 33.8349C22.1326 34.2795 22.5871 34.5529 23.2022 34.5859C24.8046 34.6682 25.6222 35.2759 25.7737 36.4937C25.8083 36.6982 25.8847 36.8934 25.998 37.0671C26.1113 37.2407 26.2592 37.3892 26.4325 37.5032C26.8903 37.8005 27.5029 37.8326 28.2506 37.6078C30.0201 37.0693 30.3626 34.8461 30.7208 32.4927L30.7637 32.2185C30.7709 32.1642 30.7889 32.1119 30.8166 32.0646C30.8444 32.0173 30.8812 31.9761 30.9251 31.9433C30.969 31.9104 31.019 31.8867 31.0722 31.8734C31.1253 31.8602 31.1806 31.8577 31.2348 31.8661C31.2889 31.8744 31.3408 31.8936 31.3875 31.9223C31.4342 31.951 31.4747 31.9887 31.5066 32.0333C31.5384 32.0779 31.5611 32.1283 31.5733 32.1818C31.5854 32.2352 31.5867 32.2905 31.5772 32.3445L31.5352 32.6187C31.1498 35.1194 30.7521 37.7066 28.4885 38.3958C28.1235 38.5114 27.7434 38.5724 27.3605 38.577ZM7.26243 19.9076C7.18882 19.9075 7.11659 19.8876 7.05326 19.8501C6.98993 19.8126 6.9378 19.7588 6.90232 19.6943C6.86684 19.6298 6.8493 19.557 6.85152 19.4834C6.85374 19.4099 6.87564 19.3382 6.91495 19.276L7.06069 19.0446C7.119 18.9523 7.21162 18.8868 7.31817 18.8627C7.42472 18.8386 7.53647 18.8579 7.62885 18.9162C7.72123 18.9745 7.78666 19.0671 7.81075 19.1737C7.83484 19.2802 7.81561 19.392 7.7573 19.4843L7.61156 19.7149C7.57445 19.774 7.52295 19.8226 7.46188 19.8563C7.40081 19.89 7.33218 19.9077 7.26243 19.9076ZM13.7279 22.6389C13.6544 22.6388 13.5822 22.619 13.5189 22.5816C13.4555 22.5442 13.4034 22.4906 13.3678 22.4262C13.3323 22.3618 13.3146 22.2891 13.3167 22.2155C13.3188 22.142 13.3405 22.0704 13.3796 22.0081L13.5254 21.7767C13.5843 21.686 13.6766 21.6221 13.7823 21.5989C13.888 21.5757 13.9985 21.595 14.0901 21.6527C14.1816 21.7104 14.2468 21.8018 14.2715 21.9071C14.2961 22.0125 14.2784 22.1233 14.222 22.2156L14.0762 22.447C14.0391 22.5058 13.9877 22.5542 13.9268 22.5878C13.8659 22.6213 13.7975 22.6389 13.7279 22.6389Z" fill="white"/>
<path d="M5.63921 22.6423C4.33162 22.6423 2.90052 21.9679 1.95441 21.1239C0.782682 20.0774 0.0523082 18.2897 0.00290297 16.3431C-0.0835561 13.0437 1.76749 9.44289 4.71863 7.17107C4.7613 7.13646 4.81046 7.11074 4.86322 7.09542C4.91598 7.08011 4.97128 7.07551 5.02585 7.08189C5.08041 7.08828 5.13315 7.10552 5.18095 7.1326C5.22875 7.15969 5.27065 7.19606 5.30418 7.23959C5.3377 7.28312 5.36217 7.33291 5.37615 7.38604C5.39013 7.43918 5.39334 7.49457 5.38558 7.54896C5.37782 7.60335 5.35925 7.65563 5.33097 7.70274C5.30269 7.74984 5.26527 7.79081 5.22091 7.82322C2.47316 9.94023 0.743981 13.2759 0.826323 16.3217C0.871611 18.046 1.49906 19.6113 2.50445 20.5097C3.50985 21.408 5.25138 22.1351 6.46263 21.6847C6.56494 21.6463 6.67829 21.6502 6.77774 21.6955C6.87719 21.7407 6.95459 21.8236 6.99291 21.9259C7.03124 22.0282 7.02735 22.1416 6.98211 22.241C6.93686 22.3405 6.85397 22.4179 6.75165 22.4562C6.3949 22.5841 6.01815 22.6471 5.63921 22.6423ZM17.3573 29.7114C15.2493 29.7114 13.6223 29.1646 12.5123 28.0818C10.933 26.542 11.0178 24.4991 11.0219 24.4127C11.0274 24.3035 11.076 24.2009 11.1571 24.1276C11.2381 24.0542 11.345 24.0161 11.4542 24.0215C11.5634 24.027 11.6659 24.0756 11.7393 24.1567C11.8126 24.2378 11.8508 24.3446 11.8453 24.4538C11.8453 24.4711 11.7819 26.2258 13.0961 27.5005C14.2044 28.5751 15.9632 29.0296 18.3232 28.8493C21.1681 28.6335 23.393 27.4659 24.9344 25.3785C25.6278 24.4455 26.1314 23.3855 26.4166 22.2586C26.4384 22.1516 26.5019 22.0576 26.593 21.9974C26.6841 21.9372 26.7954 21.9156 26.9024 21.9375C27.0094 21.9593 27.1033 22.0228 27.1636 22.1139C27.2238 22.205 27.2454 22.3163 27.2235 22.4233C27.2095 22.4924 26.8727 24.1261 25.6154 25.8413C24.4527 27.428 22.255 29.382 18.3825 29.6743C18.03 29.6985 17.6883 29.7108 17.3573 29.7114ZM18.9416 21.1717C18.8997 21.1714 18.8581 21.1651 18.818 21.1527C18.7664 21.1365 18.7184 21.1103 18.6769 21.0755C18.6354 21.0407 18.6011 20.9981 18.5761 20.9501C18.5511 20.902 18.5358 20.8495 18.5311 20.7956C18.5264 20.7416 18.5324 20.6873 18.5488 20.6356C18.8469 19.6912 18.818 18.8966 18.4664 18.2749C17.9304 17.3362 16.8056 17.0661 16.7949 17.0628C16.6906 17.0366 16.6007 16.9707 16.5444 16.879C16.4881 16.7874 16.4699 16.6774 16.4936 16.5725C16.5174 16.4676 16.5813 16.3762 16.6716 16.3178C16.7619 16.2594 16.8715 16.2386 16.9769 16.26C17.037 16.274 18.459 16.605 19.1762 17.8574C19.6546 18.6882 19.709 19.7068 19.3409 20.8835C19.3143 20.9681 19.261 21.0419 19.1891 21.0939C19.1171 21.1458 19.0303 21.1731 18.9416 21.1717Z" fill="white"/>
<path d="M6.16977 17.0442C6.12702 17.044 6.08454 17.0373 6.04379 17.0244C5.94041 16.991 5.85444 16.918 5.80462 16.8215C5.7548 16.7249 5.74517 16.6126 5.77782 16.509C5.78606 16.4818 6.66794 13.8312 9.92951 14.1943C10.038 14.2063 10.1374 14.261 10.2056 14.3462C10.2739 14.4314 10.3055 14.5403 10.2935 14.6489C10.2814 14.7574 10.2268 14.8567 10.1416 14.925C10.0563 14.9932 9.94747 15.0248 9.83893 15.0128C7.26163 14.7263 6.58972 16.6769 6.56172 16.7601C6.53476 16.8428 6.48232 16.9148 6.41191 16.9658C6.34149 17.0169 6.25673 17.0443 6.16977 17.0442Z" fill="white"/>
<path d="M8.56679 31.8957C8.06408 31.8921 7.57465 31.734 7.16487 31.4428C6.75508 31.1516 6.44478 30.7414 6.27603 30.2678C6.23782 30.1655 6.24181 30.0522 6.28713 29.9528C6.33245 29.8535 6.41539 29.7762 6.51771 29.7379C6.62002 29.6997 6.73333 29.7037 6.8327 29.749C6.93207 29.7944 7.00936 29.8773 7.04758 29.9796C7.48317 31.1439 8.62278 31.0707 8.63431 31.0698C8.7435 31.0615 8.85152 31.0969 8.9346 31.1683C9.01767 31.2396 9.06901 31.3411 9.07731 31.4502C9.08561 31.5594 9.05019 31.6675 8.97885 31.7505C8.9075 31.8336 8.80608 31.885 8.69689 31.8932C8.65407 31.8957 8.61043 31.8957 8.56679 31.8957Z" fill="white"/>
<path d="M4.75487 31.8953C4.70876 31.8953 4.66512 31.8953 4.62477 31.8903C4.57071 31.8862 4.51798 31.8715 4.4696 31.847C4.42122 31.8225 4.37814 31.7887 4.34281 31.7476C4.30749 31.7065 4.28061 31.6588 4.26372 31.6073C4.24682 31.5557 4.24024 31.5014 4.24435 31.4473C4.24846 31.3933 4.26318 31.3405 4.28767 31.2921C4.31215 31.2438 4.34593 31.2007 4.38706 31.1654C4.4282 31.13 4.47589 31.1032 4.52742 31.0863C4.57894 31.0694 4.63328 31.0628 4.68735 31.0669C5.03342 31.0776 5.37389 30.9777 5.65926 30.7817C5.94462 30.5856 6.16001 30.3036 6.27408 29.9767C6.3123 29.8744 6.38959 29.7914 6.48896 29.7461C6.58833 29.7008 6.70164 29.6968 6.80395 29.735C6.90627 29.7732 6.98921 29.8505 7.03453 29.9499C7.07985 30.0493 7.08384 30.1626 7.04563 30.2649C6.87729 30.7389 6.56716 31.1496 6.15734 31.4413C5.74752 31.733 5.25787 31.8915 4.75487 31.8953ZM12.5724 31.8953C12.0697 31.8918 11.5802 31.7337 11.1704 31.4425C10.7606 31.1512 10.4503 30.741 10.2817 30.2674C10.2434 30.165 10.2474 30.0517 10.2928 29.9524C10.3381 29.853 10.421 29.7757 10.5233 29.7375C10.6257 29.6993 10.739 29.7033 10.8383 29.7486C10.9377 29.7939 11.015 29.8768 11.0532 29.9792C11.4888 31.1435 12.6284 31.0702 12.6399 31.0694C12.7491 31.0611 12.8571 31.0965 12.9402 31.1678C13.0233 31.2392 13.0746 31.3406 13.0829 31.4498C13.0912 31.559 13.0558 31.667 12.9845 31.7501C12.9131 31.8332 12.8117 31.8845 12.7025 31.8928C12.6622 31.8953 12.6185 31.8953 12.5724 31.8953Z" fill="white"/>
<path d="M8.76285 31.8953C8.71674 31.8953 8.6731 31.8953 8.63275 31.8903C8.52356 31.8823 8.42201 31.8313 8.35043 31.7485C8.27886 31.6656 8.24313 31.5577 8.2511 31.4486C8.25907 31.3394 8.31009 31.2378 8.39294 31.1662C8.47578 31.0947 8.58367 31.0589 8.69286 31.0669C9.03937 31.0783 9.38046 30.9787 9.66635 30.7826C9.95224 30.5864 10.168 30.3041 10.2821 29.9767C10.3203 29.8744 10.3976 29.7914 10.4969 29.7461C10.5963 29.7008 10.7096 29.6968 10.8119 29.735C10.9142 29.7732 10.9972 29.8505 11.0425 29.9499C11.0878 30.0493 11.0918 30.1626 11.0536 30.2649C10.8853 30.7389 10.5751 31.1496 10.1653 31.4413C9.75551 31.733 9.26585 31.8915 8.76285 31.8953ZM10.7341 35.3536C10.2314 35.3501 9.7419 35.1921 9.33209 34.9008C8.92228 34.6096 8.61201 34.1993 8.44337 33.7257C8.40515 33.6234 8.40914 33.5101 8.45446 33.4107C8.49978 33.3114 8.58273 33.2341 8.68504 33.1959C8.78735 33.1576 8.90066 33.1616 9.00003 33.2069C9.0994 33.2523 9.17669 33.3352 9.21491 33.4375C9.6505 34.6035 10.7909 34.5302 10.8016 34.5302C10.9108 34.5219 11.0188 34.5573 11.1019 34.6287C11.185 34.7 11.2363 34.8014 11.2446 34.9106C11.2529 35.0198 11.2175 35.1278 11.1462 35.2109C11.0748 35.294 10.9734 35.3453 10.8642 35.3536H10.7341Z" fill="white"/>
<path d="M6.92023 35.3533C6.87494 35.3533 6.8313 35.3533 6.79095 35.3484C6.73689 35.3445 6.68413 35.3299 6.63569 35.3056C6.58725 35.2812 6.54407 35.2476 6.50863 35.2066C6.47319 35.1655 6.44618 35.1179 6.42914 35.0665C6.41209 35.015 6.40535 34.9607 6.4093 34.9066C6.41325 34.8526 6.4278 34.7998 6.45214 34.7514C6.47648 34.7029 6.51012 34.6598 6.55114 34.6243C6.59216 34.5889 6.63976 34.5619 6.69122 34.5448C6.74268 34.5278 6.797 34.521 6.85106 34.525C7.19755 34.5363 7.53857 34.4366 7.82444 34.2405C8.1103 34.0444 8.32606 33.7621 8.44026 33.4348C8.47848 33.3325 8.55578 33.2495 8.65515 33.2042C8.75452 33.1589 8.86782 33.1549 8.97013 33.1931C9.07245 33.2313 9.15539 33.3086 9.20071 33.408C9.24603 33.5074 9.25003 33.6207 9.21181 33.723C9.04343 34.1971 8.73317 34.6079 8.32319 34.8996C7.91321 35.1913 7.42337 35.3497 6.92023 35.3533ZM21.4948 34.2006C21.4061 34.2004 21.3198 34.1716 21.2488 34.1185C21.1778 34.0654 21.1258 33.9907 21.1007 33.9057C21.0755 33.8207 21.0785 33.7298 21.1091 33.6465C21.1398 33.5633 21.1965 33.4922 21.2708 33.4438C21.3408 33.3977 23.0099 32.3223 24.6419 32.0646C24.6953 32.0562 24.7498 32.0583 24.8024 32.071C24.855 32.0836 24.9046 32.1065 24.9483 32.1383C24.9921 32.1701 25.0291 32.2103 25.0573 32.2564C25.0856 32.3025 25.1044 32.3537 25.1129 32.4072C25.1213 32.4606 25.1191 32.5151 25.1065 32.5677C25.0938 32.6203 25.071 32.6699 25.0391 32.7136C25.0073 32.7573 24.9672 32.7944 24.9211 32.8226C24.875 32.8508 24.8237 32.8697 24.7703 32.8781C23.3096 33.1087 21.7352 34.124 21.7187 34.1339C21.6522 34.1776 21.5743 34.2008 21.4948 34.2006ZM24.7061 35.7651C24.6246 35.7652 24.5448 35.7411 24.477 35.6959C24.4091 35.6507 24.3563 35.5863 24.325 35.511C24.2938 35.4357 24.2857 35.3528 24.3016 35.2728C24.3176 35.1929 24.3569 35.1194 24.4146 35.0619C24.4525 35.0248 25.3401 34.1388 25.8424 33.7197C25.8837 33.6835 25.9319 33.656 25.984 33.6387C26.0361 33.6215 26.0911 33.6148 26.1459 33.6191C26.2006 33.6234 26.2539 33.6386 26.3027 33.6639C26.3514 33.6891 26.3946 33.7238 26.4298 33.766C26.4649 33.8082 26.4913 33.8569 26.5073 33.9094C26.5233 33.962 26.5287 34.0171 26.523 34.0717C26.5174 34.1264 26.5009 34.1793 26.4745 34.2274C26.4482 34.2756 26.4124 34.3179 26.3694 34.3521C25.8951 34.7473 25.0058 35.6358 24.9976 35.6448C24.9593 35.683 24.9138 35.7133 24.8638 35.734C24.8138 35.7546 24.7602 35.7652 24.7061 35.7651ZM27.3089 38.5787C27.2433 38.5788 27.1786 38.563 27.1204 38.5326C27.0233 38.4826 26.9501 38.3962 26.9167 38.2923C26.8834 38.1884 26.8927 38.0755 26.9425 37.9784C27.4366 37.015 27.5057 35.1928 27.5057 35.1747C27.5076 35.1206 27.52 35.0674 27.5424 35.0182C27.5648 34.9689 27.5967 34.9246 27.6362 34.8876C27.6757 34.8507 27.7222 34.8219 27.7728 34.8029C27.8235 34.7839 27.8774 34.7751 27.9314 34.777C27.9855 34.7788 28.0387 34.7913 28.0879 34.8137C28.1372 34.836 28.1815 34.8679 28.2185 34.9074C28.2554 34.947 28.2842 34.9934 28.3032 35.044C28.3222 35.0947 28.331 35.1486 28.3291 35.2027C28.3291 35.285 28.255 37.2291 27.6745 38.3547C27.64 38.422 27.5877 38.4785 27.5232 38.518C27.4587 38.5576 27.3846 38.5785 27.3089 38.5787Z" fill="white"/>
<g clip-path="url(#clip0_1064_11507)">
<path d="M60.9202 21.4668L62.3144 25.7872H67.0479L61.0407 9.1596H55.7391L49.749 25.7872H54.3449L55.7391 21.4668H60.9202ZM58.3382 12.9981L59.8874 18.0931H56.8063L58.3382 12.9981ZM81.2657 12.912H76.9281V14.5817L76.0847 13.2046C75.4306 12.8259 74.1741 12.585 73.1241 12.585C69.8192 12.585 67.0135 15.0636 67.0135 19.6422C67.0135 23.4463 69.1823 26.1315 72.6765 26.1315C73.9847 26.1315 75.2412 25.8561 75.9642 25.3225L76.9281 23.911V30.5035H81.2657V12.912ZM74.1741 23.1881C72.6593 23.1881 71.4544 21.8283 71.4544 19.4185C71.4544 16.8021 72.6077 15.5284 74.2945 15.5284C75.6027 15.5284 76.9281 16.389 76.9281 18.9709V19.5217C76.9281 22.2242 75.7748 23.1881 74.1741 23.1881ZM96.6885 12.912H92.3508V20.193C92.3508 21.9143 91.5246 23.1881 90.1476 23.1881C88.7878 23.1881 88.2025 22.4651 88.0648 21.2258C87.9788 20.5889 87.9615 19.8832 87.9615 19.4701V12.912H83.6239V20.434C83.6239 21.4668 83.6411 22.2242 83.7444 22.8782C84.037 24.634 85.655 26.1315 88.3058 26.1315C89.4763 26.1315 90.3886 25.8561 91.1976 25.3741L92.3508 23.6184V25.7872H96.6885V12.912ZM106.827 25.7872H111.078C110.872 24.3585 110.837 23.4979 110.837 22.534V18.9193C110.837 18.1275 110.803 17.3701 110.751 16.7333C110.562 14.3923 109.168 12.585 105.088 12.585C101.835 12.585 99.1671 14.289 99.1499 17.3013L103.247 17.2841C103.315 16.1652 103.883 15.5284 104.899 15.5284C105.846 15.5284 106.379 16.0964 106.448 16.7505C106.5 17.1636 106.5 17.4218 106.5 17.6972V17.8865H105.674C101.319 17.8865 98.7024 19.5734 98.7024 22.3102C98.7024 24.8061 100.716 26.1315 102.833 26.1315C104.004 26.1315 105.088 25.8389 106.018 25.2536L106.534 23.911L106.827 25.7872ZM104.606 23.1881C103.746 23.1881 103.143 22.7578 103.143 21.9832C103.143 20.7094 104.538 20.193 106.5 20.348V21.1914C106.5 22.534 105.484 23.1881 104.606 23.1881ZM127.603 12.5333V9.1596H112.473V12.5333H117.86V25.7872H122.198V12.5333H127.603ZM135.331 12.585C134.522 12.585 133.507 12.9464 132.801 13.721L131.889 15.5284V12.912H127.551V25.7872H131.889V21.0709C131.889 17.1808 133.076 15.9759 136.33 16.1997V12.6538C136.02 12.6022 135.744 12.585 135.331 12.585ZM145.211 25.7872H149.463C149.274 24.3585 149.222 23.4979 149.222 22.534V18.9193C149.222 18.1275 149.188 17.3701 149.153 16.7333C148.947 14.3923 147.552 12.585 143.49 12.585C140.237 12.585 137.552 14.289 137.535 17.3013L141.631 17.2841C141.7 16.1652 142.285 15.5284 143.284 15.5284C144.23 15.5284 144.764 16.0964 144.833 16.7505C144.884 17.1636 144.884 17.4218 144.884 17.6972V17.8865H144.058C139.703 17.8865 137.104 19.5734 137.104 22.3102C137.104 24.8061 139.101 26.1315 141.218 26.1315C142.406 26.1315 143.49 25.8389 144.402 25.2536L144.936 23.911L145.211 25.7872ZM143.008 23.1881C142.13 23.1881 141.528 22.7578 141.528 21.9832C141.528 20.7094 142.922 20.193 144.884 20.348V21.1914C144.884 22.534 143.869 23.1881 143.008 23.1881ZM157.863 12.585C154.093 12.585 151.098 15.0636 151.098 19.5045C151.098 23.7389 153.887 26.1315 157.588 26.1315C161.082 26.1315 163.646 24.393 164.128 21.0709H159.877C159.636 22.4651 158.81 23.1881 157.828 23.1881C156.348 23.1881 155.539 21.9832 155.539 19.2291C155.539 16.7505 156.331 15.5284 157.777 15.5284C158.861 15.5284 159.705 16.148 159.894 17.8349H164.094C163.973 14.9431 161.65 12.585 157.863 12.585ZM171.22 21.0193L174.663 25.7872H179.999L174.473 18.816L179.913 12.912H174.835L170.308 18.3168V8.0752H165.97V25.7872H170.308V22.0348L171.22 21.0193Z" fill="white"/>
</g>
<defs>
<clipPath id="clip0_1064_11507">
<rect width="130.25" height="22.4283" fill="white" transform="translate(49.75 8.0752)"/>
</clipPath>
</defs>
</svg>
