<svg width="127" height="127" viewBox="0 0 127 127" fill="none" xmlns="http://www.w3.org/2000/svg">
<circle cx="63.5" cy="63.5" r="62.5" fill="#02579E" stroke="#02579E" stroke-width="2"/>
<path d="M47.6667 87.3334C46.3833 87.3334 45.2843 86.876 44.3697 85.9614C43.455 85.0467 42.9984 83.9485 43 82.6667V50C43 48.7167 43.4573 47.6177 44.372 46.703C45.2867 45.7884 46.3849 45.3318 47.6667 45.3334H50V43C50 42.3389 50.224 41.7844 50.672 41.3364C51.12 40.8884 51.6738 40.6651 52.3333 40.6667C52.9944 40.6667 53.549 40.8907 53.997 41.3387C54.445 41.7867 54.6682 42.3405 54.6667 43V45.3334H73.3333V43C73.3333 42.3389 73.5573 41.7844 74.0053 41.3364C74.4533 40.8884 75.0071 40.6651 75.6667 40.6667C76.3278 40.6667 76.8823 40.8907 77.3303 41.3387C77.7783 41.7867 78.0016 42.3405 78 43V45.3334H80.3333C81.6167 45.3334 82.7157 45.7907 83.6303 46.7054C84.545 47.62 85.0016 48.7183 85 50V64H80.3333V59.3334H47.6667V82.6667H64V87.3334H47.6667ZM47.6667 54.6667H80.3333V50H47.6667V54.6667ZM87.625 75.6667L82.6667 70.7084L84.3583 69.0167C84.7861 68.5889 85.3306 68.375 85.9917 68.375C86.6528 68.375 87.1972 68.5889 87.625 69.0167L89.3167 70.7084C89.7444 71.1361 89.9583 71.6806 89.9583 72.3417C89.9583 73.0028 89.7444 73.5472 89.3167 73.975L87.625 75.6667ZM68.6667 88.5V85.7C68.6667 85.3889 68.725 85.0871 68.8417 84.7947C68.9583 84.5023 69.1333 84.2401 69.3667 84.0084L81.0333 72.3417L85.9917 77.3L74.325 88.9667C74.0917 89.2 73.8288 89.375 73.5363 89.4917C73.2439 89.6084 72.9429 89.6667 72.6333 89.6667H69.8333C69.5222 89.6667 69.25 89.55 69.0167 89.3167C68.7833 89.0834 68.6667 88.8111 68.6667 88.5Z" fill="white"/>
</svg>
