<svg width="127" height="127" viewBox="0 0 127 127" fill="none" xmlns="http://www.w3.org/2000/svg">
<circle cx="63.5" cy="63.5" r="62.5" fill="#02579E" stroke="#02579E" stroke-width="2"/>
<path d="M56.524 51.4933C55.3346 50.3036 54.6665 48.6901 54.6667 47.0078C54.6669 45.3255 55.3354 43.7122 56.5252 42.5228C57.7149 41.3334 59.3284 40.6653 61.0106 40.6656C62.6929 40.6658 64.3062 41.3343 65.4957 42.524L71.476 48.5043C72.6435 49.6986 73.293 51.3051 73.2836 52.9753C73.2741 54.6454 72.6065 56.2445 71.4255 57.4255C70.2445 58.6065 68.6454 59.2741 66.9753 59.2836C65.3051 59.293 63.6986 58.6435 62.5043 57.476L56.524 51.4933Z" stroke="white" stroke-width="3"/>
<path d="M68.6666 45.3333C68.6666 45.3333 68.1416 48.0586 65.099 51.099C62.0563 54.1416 59.3333 54.6666 59.3333 54.6666" stroke="white" stroke-width="3"/>
<path d="M47.6667 83.572H52.94C55.2967 83.572 57.6837 83.8193 59.9773 84.2907C64.0723 85.1319 68.2858 85.2252 72.414 84.566C74.4393 84.2393 76.4273 83.7377 78.2287 82.8697C79.8527 82.0833 81.843 80.9797 83.18 79.7407C84.5147 78.504 85.9053 76.481 86.89 74.899C87.7393 73.541 87.3287 71.8773 85.9893 70.867C85.2367 70.3195 84.33 70.0246 83.3993 70.0246C82.4687 70.0246 81.5619 70.3195 80.8093 70.867L76.593 74.052C74.9597 75.2887 73.1747 76.425 71.049 76.7633C70.7923 76.803 70.524 76.8403 70.244 76.873M70.244 76.873C70.1585 76.8829 70.0729 76.8922 69.9873 76.901M70.244 76.873C70.6175 76.772 70.9599 76.5795 71.2403 76.313C71.5919 76.0088 71.879 75.6373 72.0847 75.2203C72.2904 74.8034 72.4105 74.3495 72.4379 73.8854C72.4653 73.4212 72.3995 72.9563 72.2443 72.5181C72.0891 72.0798 71.8477 71.6771 71.5343 71.3337C71.2303 70.9961 70.8761 70.7073 70.4843 70.4773C63.958 66.583 53.801 69.5487 47.6667 73.9003M70.244 76.873C70.1597 76.8914 70.0736 76.9007 69.9873 76.901M69.9873 76.901C68.5801 77.0424 67.1625 77.0455 65.7547 76.9103" stroke="white" stroke-width="3" stroke-linecap="round"/>
<path d="M47.6667 72.1667C47.6667 70.2337 46.0997 68.6667 44.1667 68.6667C42.2337 68.6667 40.6667 70.2337 40.6667 72.1667V83.8333C40.6667 85.7663 42.2337 87.3333 44.1667 87.3333C46.0997 87.3333 47.6667 85.7663 47.6667 83.8333V72.1667Z" stroke="white" stroke-width="3"/>
</svg>
