<svg width="127" height="127" viewBox="0 0 127 127" fill="none" xmlns="http://www.w3.org/2000/svg">
<circle cx="63.5" cy="63.5" r="62.5" fill="#02579E" stroke="#02579E" stroke-width="2"/>
<path d="M75.081 37.6667H85.707L85.9403 37.6994L86.1713 37.7647L86.3113 37.8254C86.498 37.9047 86.6683 38.0237 86.8223 38.1754L86.9157 38.278L87.0183 38.411L87.1443 38.621L87.2353 38.831L87.2797 38.9804L87.3123 39.1297L87.3333 39.3514V49.926C87.3332 50.3694 87.1648 50.7962 86.8621 51.1202C86.5594 51.4442 86.145 51.6412 85.7026 51.6714C85.2603 51.7016 84.8229 51.5628 84.479 51.283C84.135 51.0032 83.9101 50.6033 83.8497 50.164L83.8333 49.926V43.6377L68.8067 58.6643C68.5104 58.9607 68.1175 59.1409 67.6996 59.1722C67.2817 59.2034 66.8664 59.0837 66.5293 58.8347L66.3333 58.6667L59.2633 51.8767L45.9867 65.151C45.6744 65.4641 45.2552 65.6474 44.8133 65.664C44.3714 65.6807 43.9396 65.5294 43.6047 65.2406C43.2698 64.9518 43.0567 64.5469 43.0081 64.1074C42.9596 63.6679 43.0792 63.2263 43.343 62.8713L43.5133 62.6753L58.0267 48.162C58.3233 47.866 58.7162 47.6862 59.1342 47.6554C59.5521 47.6246 59.9672 47.7447 60.304 47.994L60.5 48.162L67.57 54.952L81.3553 41.1667H75.0787C74.6562 41.1661 74.2482 41.0127 73.9299 40.7348C73.6117 40.4569 73.4048 40.0732 73.3473 39.6547L73.331 39.4167C73.331 38.9938 73.4842 38.5852 73.7621 38.2665C74.0401 37.9478 74.424 37.7405 74.843 37.683L75.081 37.6667ZM44.75 72.6667C45.2141 72.6667 45.6592 72.851 45.9874 73.1792C46.3156 73.5074 46.5 73.9525 46.5 74.4167V82.5833C46.5 83.0475 46.3156 83.4926 45.9874 83.8208C45.6592 84.149 45.2141 84.3333 44.75 84.3333C44.2859 84.3333 43.8408 84.149 43.5126 83.8208C43.1844 83.4926 43 83.0475 43 82.5833V74.4167C43 73.9525 43.1844 73.5074 43.5126 73.1792C43.8408 72.851 44.2859 72.6667 44.75 72.6667ZM58.1667 65.0833C58.1667 64.6192 57.9823 64.1741 57.6541 63.8459C57.3259 63.5177 56.8808 63.3333 56.4167 63.3333C55.9525 63.3333 55.5074 63.5177 55.1792 63.8459C54.851 64.1741 54.6667 64.6192 54.6667 65.0833V82.5833C54.6667 83.0475 54.851 83.4926 55.1792 83.8208C55.5074 84.149 55.9525 84.3333 56.4167 84.3333C56.8808 84.3333 57.3259 84.149 57.6541 83.8208C57.9823 83.4926 58.1667 83.0475 58.1667 82.5833V65.0833ZM68.0833 68C68.5475 68 68.9926 68.1844 69.3208 68.5126C69.649 68.8408 69.8333 69.2859 69.8333 69.75V82.5833C69.8333 83.0475 69.649 83.4926 69.3208 83.8208C68.9926 84.149 68.5475 84.3333 68.0833 84.3333C67.6192 84.3333 67.1741 84.149 66.8459 83.8208C66.5177 83.4926 66.3333 83.0475 66.3333 82.5833V69.75C66.3333 69.2859 66.5177 68.8408 66.8459 68.5126C67.1741 68.1844 67.6192 68 68.0833 68ZM81.5 58.0833C81.5 57.6192 81.3156 57.1741 80.9874 56.8459C80.6592 56.5177 80.2141 56.3333 79.75 56.3333C79.2859 56.3333 78.8407 56.5177 78.5126 56.8459C78.1844 57.1741 78 57.6192 78 58.0833V82.5833C78 83.0475 78.1844 83.4926 78.5126 83.8208C78.8407 84.149 79.2859 84.3333 79.75 84.3333C80.2141 84.3333 80.6592 84.149 80.9874 83.8208C81.3156 83.4926 81.5 83.0475 81.5 82.5833V58.0833Z" fill="white"/>
</svg>
