<svg width="127" height="127" viewBox="0 0 127 127" fill="none" xmlns="http://www.w3.org/2000/svg">
<circle cx="63.5" cy="63.5" r="62.5" fill="#02579E" stroke="#02579E" stroke-width="2"/>
<path d="M63 40.5C58.1544 40.5 53.4175 41.9369 49.3885 44.629C45.3595 47.3211 42.2193 51.1475 40.365 55.6243C38.5106 60.101 38.0254 65.0272 38.9708 69.7797C39.9161 74.5322 42.2495 78.8977 45.6759 82.3241C49.1023 85.7505 53.4678 88.0839 58.2203 89.0292C62.9728 89.9746 67.899 89.4894 72.3758 87.635C76.8525 85.7807 80.6789 82.6405 83.371 78.6115C86.0631 74.5825 87.5 69.8456 87.5 65C87.5 58.5022 84.9188 52.2705 80.3241 47.6759C75.7295 43.0812 69.4978 40.5 63 40.5ZM63 86C58.8466 86 54.7865 84.7684 51.333 82.4609C47.8796 80.1533 45.188 76.8736 43.5985 73.0364C42.0091 69.1991 41.5932 64.9767 42.4035 60.9031C43.2138 56.8295 45.2139 53.0877 48.1508 50.1508C51.0877 47.2139 54.8295 45.2138 58.9031 44.4035C62.9767 43.5932 67.1991 44.0091 71.0364 45.5985C74.8736 47.188 78.1534 49.8796 80.4609 53.333C82.7684 56.7865 84 60.8466 84 65C84 70.5695 81.7875 75.911 77.8493 79.8492C73.911 83.7875 68.5696 86 63 86Z" fill="white"/>
<path d="M61.25 51H64.75V70.25H61.25V51ZM63 75.5C62.4808 75.5 61.9733 75.654 61.5416 75.9424C61.11 76.2308 60.7735 76.6408 60.5748 77.1205C60.3761 77.6001 60.3242 78.1279 60.4254 78.6371C60.5267 79.1463 60.7767 79.614 61.1438 79.9812C61.511 80.3483 61.9787 80.5983 62.4879 80.6996C62.9971 80.8008 63.5249 80.7489 64.0045 80.5502C64.4842 80.3515 64.8942 80.0151 65.1826 79.5834C65.471 79.1517 65.625 78.6442 65.625 78.125C65.625 77.4288 65.3484 76.7611 64.8562 76.2688C64.3639 75.7766 63.6962 75.5 63 75.5Z" fill="white"/>
</svg>
