<svg width="127" height="127" viewBox="0 0 127 127" fill="none" xmlns="http://www.w3.org/2000/svg">
<circle cx="63.5" cy="63.5" r="62.5" fill="#02579E" stroke="#02579E" stroke-width="2"/>
<path d="M49 53.5H63V57H49V53.5ZM49 46.5H70V50H49V46.5ZM49 39.5H70V43H49V39.5Z" fill="white"/>
<path d="M43.2442 85L53.0985 67.507L66.108 78.8645C66.5013 79.2144 66.9684 79.4712 67.4746 79.6156C67.9808 79.76 68.5131 79.7883 69.0318 79.6985C69.5505 79.6087 70.0423 79.403 70.4705 79.0968C70.8987 78.7906 71.2523 78.3918 71.505 77.93L83.7025 59.7248L80.7957 57.7752L68.5458 76.0592L68.4233 76.2395L55.412 64.882C55.0189 64.5341 54.5526 64.2789 54.0476 64.1353C53.5426 63.9917 53.0118 63.9633 52.4944 64.0524C51.977 64.1414 51.4863 64.3455 51.0583 64.6497C50.6304 64.9538 50.2762 65.3502 50.022 65.8095L42 80.0703V39.5H38.5V85C38.5009 85.928 38.87 86.8177 39.5261 87.4739C40.1823 88.13 41.072 88.4991 42 88.5H87.5V85H43.2442Z" fill="white"/>
</svg>
