<svg width="127" height="127" viewBox="0 0 127 127" fill="none" xmlns="http://www.w3.org/2000/svg">
<circle cx="63.5" cy="63.5" r="62.5" fill="#02579E" stroke="#02579E" stroke-width="2"/>
<g clip-path="url(#clip0_1273_3316)">
<path d="M65.44 89.72C64.5133 90.0776 63.4867 90.0776 62.56 89.72C55.3228 86.8822 49.1085 81.9296 44.7275 75.508C40.3466 69.0864 38.0021 61.4937 38 53.72V42C38 40.9391 38.4214 39.9217 39.1716 39.1716C39.9217 38.4214 40.9391 38 42 38H86C87.0609 38 88.0783 38.4214 88.8284 39.1716C89.5786 39.9217 90 40.9391 90 42V53.68C90.0059 61.4605 87.6652 69.062 83.2837 75.4915C78.9022 81.921 72.6836 86.8798 65.44 89.72Z" stroke="white" stroke-width="4" stroke-linecap="round" stroke-linejoin="round"/>
<path d="M70 58H58C55.7909 58 54 59.7909 54 62V70C54 72.2091 55.7909 74 58 74H70C72.2091 74 74 72.2091 74 70V62C74 59.7909 72.2091 58 70 58Z" stroke="white" stroke-width="4" stroke-linecap="round" stroke-linejoin="round"/>
<path d="M70 58V54C70 53.2121 69.8448 52.4319 69.5433 51.7039C69.2417 50.9759 68.7998 50.3145 68.2426 49.7574C67.6855 49.2002 67.0241 48.7583 66.2961 48.4567C65.5681 48.1552 64.7879 48 64 48C63.2121 48 62.4319 48.1552 61.7039 48.4567C60.9759 48.7583 60.3145 49.2002 59.7574 49.7574C59.2002 50.3145 58.7583 50.9759 58.4567 51.7039C58.1552 52.4319 58 53.2121 58 54V58" stroke="white" stroke-width="4" stroke-linecap="round" stroke-linejoin="round"/>
</g>
<defs>
<clipPath id="clip0_1273_3316">
<rect width="56" height="56" fill="white" transform="translate(36 36)"/>
</clipPath>
</defs>
</svg>
