<svg width="58" height="56" viewBox="0 0 58 56" fill="none" xmlns="http://www.w3.org/2000/svg">
<rect x="0.816406" width="56.37" height="56" rx="15" fill="#F54242" fill-opacity="0.7"/>
<path d="M28.5272 15.0699C28.3737 15.0723 28.1279 15.1416 27.8282 15.2758C27.9996 15.3093 28.1443 15.3619 28.2456 15.4275C28.347 15.4931 28.4008 15.569 28.401 15.6466C28.401 15.7006 28.375 15.7541 28.3243 15.8041C28.2736 15.854 28.1994 15.8994 28.1057 15.9376C28.0121 15.9758 27.901 16.0061 27.7786 16.0268C27.6563 16.0475 27.5252 16.0581 27.3928 16.0581C27.1366 16.058 26.8902 16.0181 26.7035 15.9465C26.0178 16.4454 25.262 17.126 24.5377 17.9011C24.3683 18.0827 24.2026 18.2676 24.0405 18.4557C24.0825 18.4534 24.1248 18.4522 24.1672 18.4521C24.4373 18.4521 24.6964 18.4955 24.8874 18.5726C25.0784 18.6498 25.1857 18.7545 25.1857 18.8636C25.1857 18.9177 25.1594 18.9712 25.1082 19.0211C25.0571 19.071 24.982 19.1164 24.8875 19.1546C24.7929 19.1928 24.6806 19.2232 24.557 19.2438C24.4334 19.2645 24.301 19.2752 24.1672 19.2752C23.9041 19.2751 23.6512 19.234 23.4615 19.1603C22.6443 20.2035 21.9473 21.3147 21.5309 22.3049C26.0327 23.1609 31.196 23.099 35.936 22.1292C35.8805 21.9862 35.8209 21.8448 35.7573 21.7052C35.6181 21.7308 35.4647 21.7441 35.3091 21.7443C35.0418 21.7443 34.7854 21.7052 34.5963 21.6358C34.4072 21.5664 34.301 21.4722 34.3009 21.3739C34.3009 21.2757 34.4071 21.1815 34.5962 21.112C34.7853 21.0426 35.0417 21.0036 35.3091 21.0036C35.3418 21.0037 35.3745 21.0044 35.407 21.0056C34.8301 19.9515 34.0023 18.821 33.0709 17.8453C31.5144 16.2144 29.6483 15.0523 28.5273 15.0699H28.5272ZM29.8682 16.2328C29.9966 16.2328 30.1237 16.2421 30.2423 16.2602C30.3609 16.2783 30.4687 16.3048 30.5594 16.3383C30.6502 16.3717 30.7222 16.4114 30.7713 16.4551C30.8204 16.4988 30.8456 16.5456 30.8456 16.5929C30.8455 16.6884 30.7426 16.78 30.5593 16.8475C30.376 16.915 30.1274 16.9529 29.8682 16.9529C29.609 16.9529 29.3605 16.915 29.1771 16.8475C28.9938 16.78 28.8908 16.6884 28.8908 16.5929C28.8907 16.5456 28.916 16.4988 28.9651 16.4551C29.0142 16.4114 29.0862 16.3717 29.177 16.3382C29.2677 16.3048 29.3755 16.2783 29.4941 16.2602C29.6127 16.2421 29.7399 16.2327 29.8682 16.2328ZM31.6401 18.023C31.9048 18.023 32.1586 18.0652 32.3457 18.1405C32.5329 18.2157 32.6381 18.3177 32.6381 18.4242C32.6381 18.5306 32.5329 18.6326 32.3458 18.7079C32.1586 18.7831 31.9048 18.8254 31.6401 18.8254C31.5091 18.8254 31.3793 18.815 31.2582 18.7949C31.1371 18.7747 31.0271 18.7452 30.9344 18.7079C30.8417 18.6706 30.7682 18.6264 30.7181 18.5777C30.6679 18.529 30.6421 18.4769 30.6421 18.4242C30.6421 18.3177 30.7473 18.2157 30.9345 18.1405C31.1216 18.0652 31.3755 18.023 31.6401 18.023ZM27.7723 19.2963C27.9048 19.2963 28.0359 19.307 28.1582 19.3276C28.2806 19.3483 28.3917 19.3786 28.4854 19.4169C28.579 19.4551 28.6533 19.5005 28.7039 19.5504C28.7546 19.6003 28.7806 19.6538 28.7806 19.7079C28.7806 19.817 28.6744 19.9217 28.4853 19.9989C28.2962 20.076 28.0398 20.1194 27.7724 20.1194C27.64 20.1194 27.5089 20.1088 27.3866 20.0881C27.2642 20.0674 27.1531 20.0371 27.0594 19.9989C26.9658 19.9607 26.8915 19.9153 26.8409 19.8654C26.7902 19.8154 26.7641 19.7619 26.7641 19.7079C26.7641 19.6538 26.7902 19.6003 26.8408 19.5504C26.8915 19.5005 26.9658 19.4551 27.0594 19.4169C27.153 19.3786 27.2642 19.3483 27.3865 19.3276C27.5089 19.307 27.64 19.2963 27.7724 19.2963H27.7723ZM25.4943 21.4562C25.6295 21.4562 25.7633 21.4655 25.8881 21.4836C26.0129 21.5017 26.1263 21.5282 26.2219 21.5617C26.3174 21.5951 26.3932 21.6348 26.4449 21.6785C26.4966 21.7222 26.5232 21.769 26.5231 21.8163C26.5231 21.9118 26.4147 22.0034 26.2218 22.0709C26.0289 22.1384 25.7672 22.1764 25.4943 22.1764C25.3592 22.1764 25.2254 22.1671 25.1006 22.149C24.9758 22.1309 24.8624 22.1044 24.7668 22.0709C24.6713 22.0375 24.5955 21.9978 24.5438 21.9541C24.4921 21.9104 24.4655 21.8636 24.4655 21.8163C24.4655 21.769 24.4921 21.7222 24.5438 21.6785C24.5955 21.6348 24.6712 21.5951 24.7668 21.5617C24.8623 21.5282 24.9757 21.5017 25.1006 21.4836C25.2254 21.4655 25.3592 21.4562 25.4943 21.4562ZM38.1028 22.7021C32.1595 24.2714 25.3725 24.381 19.7441 22.9917C19.3711 23.4302 19.0456 23.8284 18.857 24.2192C18.669 24.6084 18.5868 25.008 18.6553 25.5448C25.3515 27.0658 32.6334 26.6962 39.4113 25.4777C39.4899 25.0744 39.4303 24.6847 39.2318 24.2455C39.0151 23.7661 38.6195 23.2443 38.1028 22.7021ZM38.8337 26.6539C37.5348 26.874 36.2181 27.0625 34.8904 27.2125C35.4756 29.6486 36.1705 32.4245 35.9161 34.9656L35.8793 35.333L35.5215 35.424C31.4639 36.4575 27.0974 37.2659 22.9915 35.3928L22.7307 35.2738L22.6888 34.9904C22.2975 32.3545 23.1068 29.8191 23.5259 27.3892C22.0859 27.2508 20.6569 27.0427 19.2477 26.7557C17.8708 30.1472 17.1167 34.308 17.4548 38.0756C16.876 38.6771 16.3153 39.4498 16.6179 39.9704C17.1504 40.8868 19.1285 40.4093 20.319 40.0188C25.7605 41.2864 32.0697 41.1536 37.2904 40.1025C38.372 40.4918 40.787 41.2186 41.3848 40.1897C41.6731 39.6937 41.1778 38.9689 40.6299 38.3813C41.2285 34.3024 40.0476 30.2221 38.8337 26.6539ZM33.8322 27.3244C30.7667 27.6209 27.6542 27.7008 24.581 27.4773C24.173 29.9324 23.4569 32.2873 23.7064 34.548C27.2561 36.049 31.0967 35.437 34.8852 34.4929C35.0179 32.2615 34.3923 29.6735 33.8322 27.3244H33.8322Z" fill="white"/>
</svg>
