<svg width="57" height="56" viewBox="0 0 57 56" fill="none" xmlns="http://www.w3.org/2000/svg">
<rect x="0.183594" width="56.3672" height="56" rx="15" fill="#F87B7B"/>
<g clip-path="url(#clip0_232_2452)">
<path fill-rule="evenodd" clip-rule="evenodd" d="M17.0436 28H19.56V39.25C19.56 39.9412 20.1237 40.5 20.8182 40.5H35.9166C36.6123 40.5 37.1747 39.9412 37.1747 39.25V28H39.6912C41.7722 28 43.4658 26.3175 43.4658 24.25V19.25C43.4658 17.1825 41.7722 15.5 39.6912 15.5H17.0436C14.9626 15.5 13.269 17.1825 13.269 19.25V24.25C13.269 26.3175 14.9626 28 17.0436 28ZM37.1747 23V25.5H39.6912C40.3857 25.5 40.9494 24.9387 40.9494 24.25V19.25C40.9494 18.5612 40.3857 18 39.6912 18H17.0436V18C16.3503 18 15.7855 18.5612 15.7855 19.2499V24.25C15.7855 24.9388 16.3504 25.5 17.0436 25.5H19.56V23H18.3018C17.6073 23 17.0436 22.44 17.0436 21.75C17.0436 21.06 17.6073 20.5 18.3018 20.5H20.8182H35.9166H38.4329C39.1287 20.5 39.6911 21.06 39.6911 21.75C39.6911 22.44 39.1288 23 38.433 23H37.1747Z" fill="url(#paint0_linear_232_2452)"/>
<path d="M28.8709 33.7625V34.3875C28.8646 34.6238 28.6684 34.8125 28.4306 34.8125C28.1877 34.8263 27.9801 34.6425 27.965 34.4012C27.965 34.3963 27.965 34.3925 27.965 34.3875V33.7625C27.112 33.7487 26.2954 33.4187 25.6751 32.8374C25.5946 32.7437 25.5493 32.6237 25.5493 32.4999C25.5493 32.1637 25.8161 31.8887 26.1532 31.8749C26.2854 31.8762 26.4137 31.9199 26.5181 31.9999C26.9371 32.3274 27.4366 32.5387 27.965 32.6124V30.4999C26.8327 30.2124 25.6374 29.8124 25.6374 28.3749C25.7053 27.1561 26.737 26.2137 27.965 26.2499V25.6C27.9714 25.3588 28.1739 25.1675 28.4168 25.175C28.4218 25.175 28.4255 25.175 28.4306 25.175C28.6684 25.175 28.8647 25.3637 28.871 25.6V26.2625C29.5769 26.2975 30.2487 26.5763 30.7709 27.05C30.8501 27.14 30.8942 27.255 30.8967 27.375C30.8903 27.72 30.6022 27.9938 30.255 27.9875C30.1807 28.0025 30.1028 28.0025 30.0285 27.9875C29.6687 27.7688 29.2786 27.605 28.8709 27.5V29.3625C30.0033 29.6625 31.2489 30.1001 31.2489 31.5626C31.2489 32.6375 30.5066 33.6 28.8709 33.7625ZM27.965 27.4125C27.3611 27.475 26.9711 27.8125 26.9711 28.3C26.9711 28.7875 27.3863 28.9375 27.965 29.1V27.4125ZM28.8709 30.7625V32.6125C29.6133 32.5 29.9026 32.075 29.9026 31.6625C29.9026 31.25 29.4623 30.925 28.8709 30.75V30.7625Z" fill="#F87B7B"/>
</g>
<defs>
<linearGradient id="paint0_linear_232_2452" x1="28.3674" y1="20.5" x2="28.3674" y2="23" gradientUnits="userSpaceOnUse">
<stop stop-color="white"/>
<stop offset="1" stop-color="white" stop-opacity="0.84"/>
</linearGradient>
<clipPath id="clip0_232_2452">
<rect width="30.1967" height="30" fill="white" transform="translate(13.269 13)"/>
</clipPath>
</defs>
</svg>
