<svg width="57" height="56" viewBox="0 0 57 56" fill="none" xmlns="http://www.w3.org/2000/svg">
<rect x="0.131348" width="56.3672" height="56" rx="15" fill="#4DA6F0"/>
<g clip-path="url(#clip0_232_2407)">
<path d="M30.3596 32.906C30.2474 32.7839 30.1053 32.6925 29.9585 32.6164C29.6389 32.4509 29.2894 32.3504 28.9424 32.2598V34.9314C29.5057 34.8682 30.1524 34.6651 30.4481 34.1426C30.5893 33.8931 30.6174 33.5865 30.5599 33.3087C30.5287 33.1581 30.4642 33.02 30.3596 32.906Z" fill="url(#paint0_linear_232_2407)"/>
<path d="M30.4453 34.1481C30.4465 34.146 30.4472 34.1448 30.4485 34.1426C30.4474 34.1444 30.4464 34.1462 30.4453 34.1481Z" fill="url(#paint1_linear_232_2407)"/>
<path d="M26.3003 28.6351C26.2035 28.7756 26.1427 28.9352 26.1259 29.1048C26.1092 29.2748 26.1186 29.4639 26.1836 29.624C26.2455 29.7765 26.3751 29.8891 26.509 29.9797C26.6592 30.0812 26.8243 30.1605 26.9926 30.2276C27.1337 30.2841 27.2924 30.3381 27.4635 30.3902V27.9727C27.0312 28.0643 26.5589 28.2599 26.3003 28.6351Z" fill="url(#paint2_linear_232_2407)"/>
<path d="M30.4593 34.123C30.4558 34.1293 30.452 34.1358 30.4482 34.1427C30.4526 34.1347 30.456 34.1288 30.4593 34.123Z" fill="url(#paint3_linear_232_2407)"/>
<path d="M30.4736 34.0981C30.4746 34.0963 30.4748 34.0961 30.4736 34.0981V34.0981Z" fill="url(#paint4_linear_232_2407)"/>
<path d="M29.8898 19.5649C32.1767 17.6563 33.7048 13.3565 32.7644 13.1684C31.5149 12.9185 28.8015 14.0146 27.49 14.2077C25.6299 14.4308 23.6039 12.2037 22.4667 13.4451C21.5421 14.4545 23.1296 18.1251 25.6133 19.7242C18.2033 23.3423 7.78804 41.5059 25.958 42.8238C51.0993 44.6475 38.5102 23.0908 29.8898 19.5649ZM32.049 33.8896C31.9717 34.5977 31.5939 35.2381 31.0293 35.6728C30.4331 36.1319 29.6853 36.3454 28.9424 36.4052V37.1876C28.9424 37.3969 28.8503 37.5994 28.6926 37.738C28.4758 37.9286 28.1572 37.9756 27.894 37.8551C27.6342 37.7364 27.4635 37.4716 27.4635 37.1876V36.3324C27.3361 36.3084 27.2096 36.2798 27.0846 36.2457C26.3903 36.0562 25.7462 35.6867 25.2757 35.1401C25.0413 34.8676 24.8503 34.5585 24.7181 34.2247C24.6836 34.1375 24.6528 34.0487 24.6259 33.9589C24.6015 33.8776 24.5763 33.7949 24.5676 33.7101C24.553 33.568 24.5813 33.4229 24.648 33.2963C24.7851 33.0358 25.074 32.8784 25.369 32.9046C25.6593 32.9301 25.9138 33.1303 26.0052 33.4052C26.0333 33.4899 26.0524 33.5767 26.084 33.6605C26.1154 33.7437 26.1532 33.8246 26.1977 33.9016C26.2856 34.0532 26.3956 34.1931 26.5224 34.3145C26.7837 34.5646 27.1165 34.7271 27.4635 34.8238V31.917C26.785 31.7425 26.0847 31.5171 25.5245 31.0844C25.2522 30.8739 25.0212 30.6125 24.8699 30.3031C24.7102 29.9765 24.6441 29.6127 24.6414 29.2513C24.6386 28.8844 24.7088 28.5207 24.8629 28.1864C25.0072 27.8734 25.2149 27.5923 25.4697 27.3594C26.0143 26.8613 26.7379 26.5835 27.4636 26.4814V26.4175V25.6692C27.4636 25.46 27.5556 25.2574 27.7134 25.1188C27.9302 24.9283 28.2487 24.8812 28.5119 25.0017C28.7717 25.1205 28.9424 25.3852 28.9424 25.6692V26.4175V26.477C29.0391 26.4891 29.1356 26.5036 29.2315 26.5209C29.9441 26.649 30.6411 26.9413 31.1622 27.4518C31.4091 27.6935 31.6112 27.9816 31.7533 28.2957C31.793 28.3834 31.8277 28.473 31.8578 28.5645C31.8858 28.6497 31.914 28.7375 31.9273 28.8265C31.9487 28.9685 31.9269 29.1152 31.8657 29.2452C31.7404 29.5114 31.4592 29.6809 31.1635 29.6683C30.8729 29.6558 30.6096 29.4678 30.5055 29.1979C30.4746 29.1176 30.4591 29.0327 30.4275 28.9526C30.3955 28.8716 30.3542 28.7943 30.3066 28.7213C30.2141 28.5793 30.0942 28.4576 29.9573 28.3573C29.6609 28.1399 29.3014 28.0266 28.9422 27.9633V30.745C29.3691 30.8465 29.7964 30.9573 30.2054 31.1175C30.8236 31.3597 31.4094 31.7311 31.7468 32.3166C31.6945 32.2254 31.6435 32.1365 31.7486 32.3196C31.8517 32.4995 31.8025 32.4138 31.7507 32.3236C32.0191 32.7937 32.1074 33.3557 32.049 33.8896Z" fill="url(#paint5_linear_232_2407)"/>
<path d="M30.4372 34.1611C30.4329 34.1688 30.4292 34.1755 30.4263 34.1807C30.4288 34.1762 30.4326 34.1696 30.4372 34.1611Z" fill="url(#paint6_linear_232_2407)"/>
</g>
<defs>
<linearGradient id="paint0_linear_232_2407" x1="29.7651" y1="32.2598" x2="29.7651" y2="34.9314" gradientUnits="userSpaceOnUse">
<stop stop-color="white"/>
<stop offset="1" stop-color="white" stop-opacity="0.9"/>
</linearGradient>
<linearGradient id="paint1_linear_232_2407" x1="30.4469" y1="34.1426" x2="30.4469" y2="34.1481" gradientUnits="userSpaceOnUse">
<stop stop-color="white"/>
<stop offset="1" stop-color="white" stop-opacity="0.9"/>
</linearGradient>
<linearGradient id="paint2_linear_232_2407" x1="26.7911" y1="27.9727" x2="26.7911" y2="30.3902" gradientUnits="userSpaceOnUse">
<stop stop-color="white"/>
<stop offset="1" stop-color="white" stop-opacity="0.9"/>
</linearGradient>
<linearGradient id="paint3_linear_232_2407" x1="30.4538" y1="34.123" x2="30.4538" y2="34.1427" gradientUnits="userSpaceOnUse">
<stop stop-color="white"/>
<stop offset="1" stop-color="white" stop-opacity="0.9"/>
</linearGradient>
<linearGradient id="paint4_linear_232_2407" x1="30.474" y1="34.0967" x2="30.474" y2="34.0981" gradientUnits="userSpaceOnUse">
<stop stop-color="white"/>
<stop offset="1" stop-color="white" stop-opacity="0.9"/>
</linearGradient>
<linearGradient id="paint5_linear_232_2407" x1="28.315" y1="13.0664" x2="28.315" y2="42.9331" gradientUnits="userSpaceOnUse">
<stop stop-color="white"/>
<stop offset="1" stop-color="white" stop-opacity="0.9"/>
</linearGradient>
<linearGradient id="paint6_linear_232_2407" x1="30.4318" y1="34.1611" x2="30.4318" y2="34.1807" gradientUnits="userSpaceOnUse">
<stop stop-color="white"/>
<stop offset="1" stop-color="white" stop-opacity="0.9"/>
</linearGradient>
<clipPath id="clip0_232_2407">
<rect width="30.0625" height="29.8667" fill="white" transform="translate(13.2837 13.0664)"/>
</clipPath>
</defs>
</svg>
