<svg width="26" height="26" viewBox="0 0 26 26" fill="none" xmlns="http://www.w3.org/2000/svg">
<path d="M25.4199 11.5563C25.3668 11.4292 25.2908 11.3136 25.1939 11.2167L22.0699 8.09277C21.6627 7.68652 21.0043 7.68652 20.5971 8.09277C20.1898 8.50005 20.1898 9.15942 20.5971 9.56567L21.9439 10.9125H16.1251C15.5491 10.9125 15.0835 11.3792 15.0835 11.9542C15.0835 12.5292 15.5491 12.9958 16.1251 12.9958H21.9439L20.597 14.3427C20.1897 14.75 20.1897 15.4094 20.597 15.8156C20.8001 16.0198 21.0668 16.1208 21.3335 16.1208C21.6002 16.1208 21.8668 16.0198 22.0699 15.8156L25.1939 12.6916C25.2908 12.5958 25.3668 12.4802 25.4199 12.352C25.5251 12.098 25.5251 11.8105 25.4199 11.5563Z" fill="#F84D4D"/>
<path d="M18.2083 15.0794C17.6322 15.0794 17.1666 15.5461 17.1666 16.1211V21.3294H13V4.66274C13 4.20336 12.6979 3.79711 12.2573 3.66484L8.63953 2.57944H17.1666V7.78778C17.1666 8.36278 17.6322 8.82943 18.2083 8.82943C18.7843 8.82943 19.2499 8.36278 19.2499 7.78778V1.53779C19.2499 0.962743 18.7843 0.496094 18.2083 0.496094H1.54165C1.50415 0.496094 1.4708 0.511719 1.43437 0.515869C1.3854 0.521094 1.34062 0.529394 1.29375 0.540869C1.18437 0.568994 1.0854 0.611719 0.992724 0.670019C0.969823 0.684619 0.941698 0.685644 0.919823 0.702295C0.911425 0.708593 0.9083 0.720068 0.89995 0.726318C0.786425 0.815869 0.69165 0.925243 0.6229 1.05547C0.608301 1.08359 0.605176 1.11382 0.59375 1.14297C0.5604 1.22212 0.523975 1.29922 0.511475 1.38672C0.50625 1.41797 0.515625 1.44712 0.5146 1.47734C0.513574 1.49819 0.5 1.51694 0.5 1.53774V22.3711C0.5 22.8679 0.851025 23.295 1.3375 23.3919L11.7541 25.4752C11.8219 25.4898 11.8906 25.4961 11.9583 25.4961C12.1968 25.4961 12.4312 25.4138 12.6187 25.2596C12.8593 25.0617 12.9999 24.7669 12.9999 24.4544V23.4128H18.2083C18.7843 23.4128 19.2499 22.9461 19.2499 22.3711V16.1211C19.2499 15.5461 18.7843 15.0794 18.2083 15.0794Z" fill="#F84D4D"/>
</svg>
