<svg width="57" height="56" viewBox="0 0 57 56" fill="none" xmlns="http://www.w3.org/2000/svg">
<rect x="0.209961" width="56.3672" height="56" rx="15" fill="#FDCB00" fill-opacity="0.72"/>
<g clip-path="url(#clip0_232_2473)">
<path d="M39.07 17.3934C36.2183 14.5602 32.4267 13 28.3938 13C24.3609 13 20.5693 14.5602 17.7176 17.3934C14.8659 20.2265 13.2954 23.9934 13.2954 28C13.2954 32.0066 14.8659 35.7735 17.7176 38.6066C20.5692 41.4398 24.3609 43 28.3938 43C32.4267 43 36.2183 41.4398 39.07 38.6066C41.9217 35.7735 43.4921 32.0066 43.4921 28C43.4921 23.9934 41.9216 20.2265 39.07 17.3934ZM28.3938 27.0625C30.7353 27.0625 32.6402 28.955 32.6402 31.2812C32.6402 33.2076 31.3334 34.8355 29.5546 35.3385C29.4268 35.3746 29.3374 35.4888 29.3374 35.6208V36.411C29.3374 36.9159 28.9469 37.3502 28.4394 37.3739C27.8974 37.3993 27.4501 36.9703 27.4501 36.4375V35.6206C27.4501 35.489 27.3613 35.3747 27.2339 35.3387C25.4626 34.8383 24.1592 33.2227 24.1474 31.3074C24.1443 30.7962 24.5489 30.3588 25.0633 30.3442C25.5971 30.3289 26.0347 30.7543 26.0347 31.2812C26.0347 32.629 27.1857 33.7148 28.5624 33.6191C29.7245 33.5385 30.6658 32.6032 30.747 31.4487C30.8431 30.0809 29.7503 28.9375 28.3938 28.9375C26.0523 28.9375 24.1474 27.045 24.1474 24.7188C24.1474 22.7924 25.4541 21.1645 27.233 20.6615C27.3608 20.6254 27.4501 20.5112 27.4501 20.3792V19.589C27.4501 19.0841 27.8406 18.6498 28.3482 18.6261C28.8901 18.6007 29.3374 19.0297 29.3374 19.5625V20.3794C29.3374 20.511 29.4262 20.6253 29.5537 20.6613C31.3249 21.1617 32.6283 22.7773 32.6401 24.6926C32.6433 25.2038 32.2387 25.6412 31.7243 25.6558C31.1904 25.6711 30.7529 25.2457 30.7529 24.7188C30.7529 23.371 29.6018 22.2852 28.2252 22.3809C27.0631 22.4615 26.1217 23.3968 26.0406 24.5513C25.9444 25.9191 27.0372 27.0625 28.3938 27.0625Z" fill="url(#paint0_linear_232_2473)"/>
</g>
<defs>
<linearGradient id="paint0_linear_232_2473" x1="28.3938" y1="13" x2="28.3938" y2="43" gradientUnits="userSpaceOnUse">
<stop stop-color="white"/>
<stop offset="1" stop-color="white" stop-opacity="0.82"/>
</linearGradient>
<clipPath id="clip0_232_2473">
<rect width="30.1967" height="30" fill="white" transform="translate(13.2954 13)"/>
</clipPath>
</defs>
</svg>
