<svg width="57" height="56" viewBox="0 0 57 56" fill="none" xmlns="http://www.w3.org/2000/svg">
<rect x="0.157715" width="56.3672" height="56" rx="15" fill="#4DB697"/>
<g clip-path="url(#clip0_232_2436)">
<path d="M19.3618 18.6664H29.4027L31.5697 16.9441C32.3075 16.3592 32.5831 15.4097 32.2712 14.5237C31.9593 13.6376 31.1488 13.0664 30.2069 13.0664H18.5577C17.6157 13.0664 16.8053 13.6389 16.4934 14.5237C16.1815 15.4085 16.457 16.3592 17.1936 16.9429L19.3618 18.6664Z" fill="url(#paint0_linear_232_2436)"/>
<path d="M34.4032 28.2239L33.5764 29.0452C33.0504 29.5803 32.3364 29.8665 31.5848 29.8665C30.8332 29.8665 30.1193 29.5803 29.5932 29.0452C28.4909 27.9501 28.4909 26.183 29.5932 25.0879L31.66 23.0345C31.0211 22.1012 30.3197 21.255 29.5681 20.5332H19.1965C15.7644 23.8683 13.1089 29.7296 13.1089 34.5332C13.1089 38.7145 15.3385 42.9332 20.3114 42.9332H28.7664C33.0128 42.9332 35.6558 39.7101 35.6558 34.5332C35.6558 32.5296 35.1923 30.3394 34.4032 28.2239ZM23.9063 30.7999H24.8583C26.3239 30.7999 27.5138 31.9821 27.5138 33.4381C27.5138 34.7448 26.5619 35.8274 25.3218 36.039V37.0221C25.3218 37.5323 24.8959 37.9554 24.3823 37.9554C23.8688 37.9554 23.4429 37.5323 23.4429 37.0221V36.0888H22.1903C21.6767 36.0888 21.2508 35.6656 21.2508 35.1554C21.2508 34.6452 21.6767 34.2221 22.1903 34.2221H24.8583C25.2842 34.2221 25.6349 33.8736 25.6349 33.4505C25.6349 33.015 25.2842 32.6665 24.8583 32.6665H23.9063C22.4408 32.6665 21.2508 31.4843 21.2508 30.0283C21.2508 28.7216 22.2028 27.639 23.4429 27.4274V26.4443C23.4429 25.9341 23.8688 25.511 24.3823 25.511C24.8959 25.511 25.3218 25.9341 25.3218 26.4443V27.3776H26.5744C27.088 27.3776 27.5138 27.8008 27.5138 28.311C27.5138 28.8212 27.088 29.2443 26.5744 29.2443H23.9063C23.4805 29.2443 23.1297 29.5928 23.1297 30.0159C23.1297 30.4514 23.4805 30.7999 23.9063 30.7999Z" fill="url(#paint1_linear_232_2436)"/>
<path d="M40.9797 20.5332H37.8482C37.4686 20.5332 37.1254 20.7609 36.9801 21.1094C36.8348 21.4578 36.915 21.8598 37.1843 22.1261L37.996 22.9325L36.7772 24.05L35.1826 23.144C34.8143 22.935 34.3521 22.9972 34.0528 23.2959L30.9213 26.407C30.5542 26.7716 30.5542 27.3627 30.9213 27.7273C31.1041 27.909 31.3446 28.0011 31.5851 28.0011C31.8256 28.0011 32.0661 27.9103 32.249 27.7273L34.8732 25.1202L36.4415 26.0112C36.7985 26.2141 37.2444 26.1631 37.545 25.8868L39.325 24.2553L40.3145 25.2384C40.4949 25.4164 40.7354 25.511 40.9797 25.511C41.1012 25.511 41.2227 25.4873 41.3392 25.44C41.6899 25.2957 41.9191 24.9547 41.9191 24.5776V21.4665C41.9191 20.9513 41.4982 20.5332 40.9797 20.5332Z" fill="url(#paint2_linear_232_2436)"/>
</g>
<defs>
<linearGradient id="paint0_linear_232_2436" x1="24.3823" y1="13.0664" x2="24.3823" y2="18.6664" gradientUnits="userSpaceOnUse">
<stop stop-color="white"/>
<stop offset="1" stop-color="white" stop-opacity="0.9"/>
</linearGradient>
<linearGradient id="paint1_linear_232_2436" x1="24.3823" y1="20.5332" x2="24.3823" y2="42.9332" gradientUnits="userSpaceOnUse">
<stop stop-color="white"/>
<stop offset="1" stop-color="white" stop-opacity="0.9"/>
</linearGradient>
<linearGradient id="paint2_linear_232_2436" x1="36.2826" y1="20.5332" x2="36.2826" y2="28.0011" gradientUnits="userSpaceOnUse">
<stop stop-color="white"/>
<stop offset="1" stop-color="white" stop-opacity="0.9"/>
</linearGradient>
<clipPath id="clip0_232_2436">
<rect width="30.0625" height="29.8667" fill="white" transform="translate(13.1089 13.0664)"/>
</clipPath>
</defs>
</svg>
