<svg width="50" height="48" viewBox="0 0 50 48" fill="none" xmlns="http://www.w3.org/2000/svg">
<rect width="49.5625" height="48" rx="12" fill="#0180EA"/>
<g clip-path="url(#clip0_232_2392)">
<mask id="path-2-outside-1_232_2392" maskUnits="userSpaceOnUse" x="6.22314" y="4" width="33" height="36" fill="black">
<rect fill="white" x="6.22314" y="4" width="33" height="36"/>
<path fill-rule="evenodd" clip-rule="evenodd" d="M12.9483 23.3942C13.298 23.0562 13.7424 22.8244 14.227 22.7274L13.7396 22.257C13.5025 22.0276 13.3146 21.7553 13.1867 21.4557C13.0587 21.1561 12.9933 20.8351 12.9942 20.5111C12.9942 19.8802 13.2408 19.2466 13.7396 18.7651C14.1237 18.3944 14.5996 18.1675 15.1014 18.0817L14.7086 17.7026C14.4715 17.4732 14.2836 17.2009 14.1557 16.9013C14.0277 16.6017 13.9623 16.2807 13.9632 15.9567C13.9661 15.3286 14.2155 14.695 14.7115 14.2135C14.9491 13.9847 15.2313 13.8033 15.5417 13.6799C15.8521 13.5564 16.1847 13.4933 16.5205 13.4941C17.1741 13.4941 17.8306 13.7321 18.3295 14.2135L18.7279 14.5981C18.8197 14.1278 19.0519 13.6795 19.4303 13.3171C19.668 13.0882 19.9501 12.9068 20.2606 12.7834C20.571 12.6599 20.9036 12.5968 21.2393 12.5977C21.893 12.5977 22.5524 12.8384 23.0483 13.3171L31.6461 21.6151C31.8152 21.7368 31.9786 21.8696 32.1334 22.019L32.638 22.506L32.6409 22.423C32.6609 21.8392 32.6609 21.2526 32.6581 21.0312C32.6552 19.5426 33.3232 18.5825 34.1919 18.1481C34.5752 17.9559 35.0046 17.8652 35.4361 17.8852C35.8604 17.9046 36.2818 18.0291 36.666 18.256C37.5719 18.7928 38.2571 19.9106 38.1596 21.5708V21.6068L38.1969 29.321L38.1997 29.3237C38.1997 29.3403 38.1997 29.3597 38.1969 29.3791C38.1739 30.4803 37.9876 31.3989 37.6149 32.2345C37.2365 33.084 36.6746 33.8255 35.9149 34.5588L33.3404 37.0435C31.97 38.366 30.1754 39.0135 28.3836 39.0052C26.5774 38.9914 24.777 38.3135 23.4038 36.9881L20.0123 33.7148C19.8948 33.6014 19.783 33.4797 19.6797 33.3579C19.6281 33.3302 19.5794 33.297 19.5364 33.2528L12.9512 26.8861C12.7141 26.6567 12.5262 26.3844 12.3983 26.0848C12.2704 25.7852 12.205 25.4642 12.2058 25.1401C12.2029 24.5065 12.4524 23.8756 12.9483 23.3942ZM16.2997 35.2034C16.6695 35.3086 16.8817 35.6849 16.7727 36.0418C16.7201 36.2134 16.599 36.3578 16.4362 36.4434C16.2733 36.529 16.082 36.5487 15.9041 36.4984C13.6163 35.8509 11.7987 34.8493 10.3796 33.5461C8.95764 32.2401 7.94277 30.6408 7.26332 28.8035C7.13431 28.4521 7.32639 28.0648 7.69049 27.943C8.05458 27.8185 8.45594 28.0039 8.58208 28.3553C9.18699 29.9961 10.0872 31.4155 11.3429 32.5693C12.6043 33.7259 14.2327 34.6196 16.2997 35.2034ZM25.2931 10.3315C24.9433 10.1738 24.7942 9.76985 24.9577 9.43229C25.1211 9.09472 25.5396 8.95084 25.8894 9.10855C26.9587 9.59553 27.8933 10.1821 28.7104 10.8573C29.5303 11.5379 30.227 12.3044 30.8118 13.1538C31.024 13.4637 30.938 13.8843 30.614 14.089C30.2929 14.2938 29.8571 14.2108 29.645 13.8981C29.1318 13.151 28.5183 12.4759 27.8016 11.881C27.0791 11.2861 26.2478 10.7659 25.2931 10.3315ZM26.4169 6.32226C26.2391 6.27141 26.0895 6.1546 26.0008 5.99744C25.9122 5.84028 25.8917 5.65559 25.9439 5.48388C25.9966 5.31231 26.1176 5.1679 26.2804 5.08231C26.4433 4.99673 26.6346 4.97696 26.8125 5.02734C29.1003 5.6748 30.9179 6.67643 32.337 7.97965C33.759 9.28564 34.7738 10.8849 35.4533 12.7222C35.5823 13.0736 35.3902 13.4609 35.0261 13.5827C34.662 13.7072 34.2607 13.5218 34.1345 13.1704C33.5296 11.5296 32.6294 10.1102 31.3737 8.95637C30.1123 7.7998 28.4839 6.90608 26.4169 6.32226ZM33.0136 24.2907C32.0388 24.7085 31.2676 25.1982 30.6943 25.735C30.0951 26.2967 29.7167 26.9027 29.5561 27.5225C29.3984 28.1229 29.4529 28.7454 29.7081 29.3542C29.9088 29.8301 30.2298 30.2949 30.6771 30.7376L29.8485 31.5179C29.2924 30.9645 28.8853 30.3779 28.633 29.7803C28.2804 28.9474 28.2144 28.0897 28.4323 27.2513C28.6445 26.4323 29.129 25.6465 29.8829 24.9354C30.4477 24.4069 31.1587 23.9227 32.0216 23.5021L31.3049 22.8104C31.216 22.7246 31.1243 22.6471 31.0268 22.5724C30.9724 22.5531 30.9208 22.5254 30.8749 22.4866C30.2781 22.121 29.5714 21.9592 28.8681 22.0273C28.1743 22.0965 27.4977 22.3815 26.9702 22.8934L26.7638 23.0926L26.7495 23.1064L26.7351 23.1203L23.9399 25.818L23.917 25.8402L23.8941 25.8623L21.0989 28.5601C21.0558 28.6016 21.0071 28.6375 20.9526 28.6624L20.8494 28.762C20.343 29.2503 20.0271 29.8925 19.955 30.5799C19.9206 30.9092 19.9406 31.2384 20.0123 31.5622C20.1556 32.0547 20.4309 32.5223 20.8351 32.9124L24.2266 36.1857C25.3791 37.298 26.8871 37.8652 28.3893 37.8735C29.8801 37.8818 31.3709 37.3395 32.5119 36.2383L35.0863 33.7536C35.7514 33.1116 36.2331 32.4808 36.5456 31.778C36.8581 31.0835 37.0129 30.2977 37.0301 29.3459V29.3044L36.9928 21.5985C36.9899 21.5736 36.9899 21.5459 36.9928 21.5182L37.5748 21.5514L36.9957 21.5182C37.0702 20.3201 36.6316 19.5426 36.0467 19.1995C35.8346 19.0723 35.6024 19.0031 35.373 18.9948C35.1437 18.9837 34.92 19.028 34.7165 19.1304C34.2033 19.3877 33.8106 20.0075 33.8106 21.0174C33.8106 21.2498 33.8106 21.8641 33.7934 22.4451C33.7733 22.9902 33.736 23.5353 33.65 23.8341C33.6271 23.9393 33.5755 24.0389 33.4923 24.1191C33.3662 24.2575 33.1856 24.3101 33.0136 24.2907ZM20.6 27.2873L22.5724 25.3836L16.5405 19.5565C16.271 19.2964 15.9098 19.1636 15.5543 19.1636C15.196 19.1636 14.8376 19.2936 14.5681 19.5565C14.2986 19.8166 14.161 20.1652 14.161 20.5083C14.161 20.8542 14.2958 21.2 14.5681 21.4601L16.5721 23.3942L20.6 27.2873ZM23.444 24.5425L25.4164 22.6388L17.5067 15.0049C17.2372 14.7448 16.8759 14.612 16.5205 14.612C16.1621 14.612 15.8037 14.742 15.5343 15.0049C15.2648 15.265 15.1272 15.6136 15.1272 15.9567C15.1272 16.3026 15.2619 16.6484 15.5343 16.9085L23.444 24.5425ZM26.2736 21.8254C27.0763 21.1475 28.0883 20.8071 29.0974 20.8071C29.1204 20.8071 29.1433 20.8099 29.1662 20.8071L22.2227 14.1084C21.9532 13.8483 21.592 13.7155 21.2365 13.7155C20.8781 13.7155 20.5226 13.8455 20.2503 14.1084C20.1209 14.2335 20.0184 14.3819 19.9486 14.5452C19.8787 14.7085 19.8429 14.8835 19.8432 15.0602C19.8432 15.4061 19.9779 15.7519 20.2503 16.012L26.2736 21.8254ZM18.7394 30.887C18.7394 30.8566 18.7365 30.8262 18.7365 30.7985C18.7251 29.8301 19.0691 28.8616 19.783 28.0897L15.7435 24.1911C15.614 24.0663 15.4602 23.9673 15.2909 23.8999C15.1217 23.8325 14.9404 23.7979 14.7573 23.7982C14.399 23.7982 14.0406 23.9282 13.7711 24.1911C13.4988 24.4539 13.364 24.7998 13.364 25.1429C13.364 25.4888 13.4988 25.8319 13.7711 26.0947L18.7394 30.887Z"/>
</mask>
<path fill-rule="evenodd" clip-rule="evenodd" d="M12.9483 23.3942C13.298 23.0562 13.7424 22.8244 14.227 22.7274L13.7396 22.257C13.5025 22.0276 13.3146 21.7553 13.1867 21.4557C13.0587 21.1561 12.9933 20.8351 12.9942 20.5111C12.9942 19.8802 13.2408 19.2466 13.7396 18.7651C14.1237 18.3944 14.5996 18.1675 15.1014 18.0817L14.7086 17.7026C14.4715 17.4732 14.2836 17.2009 14.1557 16.9013C14.0277 16.6017 13.9623 16.2807 13.9632 15.9567C13.9661 15.3286 14.2155 14.695 14.7115 14.2135C14.9491 13.9847 15.2313 13.8033 15.5417 13.6799C15.8521 13.5564 16.1847 13.4933 16.5205 13.4941C17.1741 13.4941 17.8306 13.7321 18.3295 14.2135L18.7279 14.5981C18.8197 14.1278 19.0519 13.6795 19.4303 13.3171C19.668 13.0882 19.9501 12.9068 20.2606 12.7834C20.571 12.6599 20.9036 12.5968 21.2393 12.5977C21.893 12.5977 22.5524 12.8384 23.0483 13.3171L31.6461 21.6151C31.8152 21.7368 31.9786 21.8696 32.1334 22.019L32.638 22.506L32.6409 22.423C32.6609 21.8392 32.6609 21.2526 32.6581 21.0312C32.6552 19.5426 33.3232 18.5825 34.1919 18.1481C34.5752 17.9559 35.0046 17.8652 35.4361 17.8852C35.8604 17.9046 36.2818 18.0291 36.666 18.256C37.5719 18.7928 38.2571 19.9106 38.1596 21.5708V21.6068L38.1969 29.321L38.1997 29.3237C38.1997 29.3403 38.1997 29.3597 38.1969 29.3791C38.1739 30.4803 37.9876 31.3989 37.6149 32.2345C37.2365 33.084 36.6746 33.8255 35.9149 34.5588L33.3404 37.0435C31.97 38.366 30.1754 39.0135 28.3836 39.0052C26.5774 38.9914 24.777 38.3135 23.4038 36.9881L20.0123 33.7148C19.8948 33.6014 19.783 33.4797 19.6797 33.3579C19.6281 33.3302 19.5794 33.297 19.5364 33.2528L12.9512 26.8861C12.7141 26.6567 12.5262 26.3844 12.3983 26.0848C12.2704 25.7852 12.205 25.4642 12.2058 25.1401C12.2029 24.5065 12.4524 23.8756 12.9483 23.3942ZM16.2997 35.2034C16.6695 35.3086 16.8817 35.6849 16.7727 36.0418C16.7201 36.2134 16.599 36.3578 16.4362 36.4434C16.2733 36.529 16.082 36.5487 15.9041 36.4984C13.6163 35.8509 11.7987 34.8493 10.3796 33.5461C8.95764 32.2401 7.94277 30.6408 7.26332 28.8035C7.13431 28.4521 7.32639 28.0648 7.69049 27.943C8.05458 27.8185 8.45594 28.0039 8.58208 28.3553C9.18699 29.9961 10.0872 31.4155 11.3429 32.5693C12.6043 33.7259 14.2327 34.6196 16.2997 35.2034ZM25.2931 10.3315C24.9433 10.1738 24.7942 9.76985 24.9577 9.43229C25.1211 9.09472 25.5396 8.95084 25.8894 9.10855C26.9587 9.59553 27.8933 10.1821 28.7104 10.8573C29.5303 11.5379 30.227 12.3044 30.8118 13.1538C31.024 13.4637 30.938 13.8843 30.614 14.089C30.2929 14.2938 29.8571 14.2108 29.645 13.8981C29.1318 13.151 28.5183 12.4759 27.8016 11.881C27.0791 11.2861 26.2478 10.7659 25.2931 10.3315ZM26.4169 6.32226C26.2391 6.27141 26.0895 6.1546 26.0008 5.99744C25.9122 5.84028 25.8917 5.65559 25.9439 5.48388C25.9966 5.31231 26.1176 5.1679 26.2804 5.08231C26.4433 4.99673 26.6346 4.97696 26.8125 5.02734C29.1003 5.6748 30.9179 6.67643 32.337 7.97965C33.759 9.28564 34.7738 10.8849 35.4533 12.7222C35.5823 13.0736 35.3902 13.4609 35.0261 13.5827C34.662 13.7072 34.2607 13.5218 34.1345 13.1704C33.5296 11.5296 32.6294 10.1102 31.3737 8.95637C30.1123 7.7998 28.4839 6.90608 26.4169 6.32226ZM33.0136 24.2907C32.0388 24.7085 31.2676 25.1982 30.6943 25.735C30.0951 26.2967 29.7167 26.9027 29.5561 27.5225C29.3984 28.1229 29.4529 28.7454 29.7081 29.3542C29.9088 29.8301 30.2298 30.2949 30.6771 30.7376L29.8485 31.5179C29.2924 30.9645 28.8853 30.3779 28.633 29.7803C28.2804 28.9474 28.2144 28.0897 28.4323 27.2513C28.6445 26.4323 29.129 25.6465 29.8829 24.9354C30.4477 24.4069 31.1587 23.9227 32.0216 23.5021L31.3049 22.8104C31.216 22.7246 31.1243 22.6471 31.0268 22.5724C30.9724 22.5531 30.9208 22.5254 30.8749 22.4866C30.2781 22.121 29.5714 21.9592 28.8681 22.0273C28.1743 22.0965 27.4977 22.3815 26.9702 22.8934L26.7638 23.0926L26.7495 23.1064L26.7351 23.1203L23.9399 25.818L23.917 25.8402L23.8941 25.8623L21.0989 28.5601C21.0558 28.6016 21.0071 28.6375 20.9526 28.6624L20.8494 28.762C20.343 29.2503 20.0271 29.8925 19.955 30.5799C19.9206 30.9092 19.9406 31.2384 20.0123 31.5622C20.1556 32.0547 20.4309 32.5223 20.8351 32.9124L24.2266 36.1857C25.3791 37.298 26.8871 37.8652 28.3893 37.8735C29.8801 37.8818 31.3709 37.3395 32.5119 36.2383L35.0863 33.7536C35.7514 33.1116 36.2331 32.4808 36.5456 31.778C36.8581 31.0835 37.0129 30.2977 37.0301 29.3459V29.3044L36.9928 21.5985C36.9899 21.5736 36.9899 21.5459 36.9928 21.5182L37.5748 21.5514L36.9957 21.5182C37.0702 20.3201 36.6316 19.5426 36.0467 19.1995C35.8346 19.0723 35.6024 19.0031 35.373 18.9948C35.1437 18.9837 34.92 19.028 34.7165 19.1304C34.2033 19.3877 33.8106 20.0075 33.8106 21.0174C33.8106 21.2498 33.8106 21.8641 33.7934 22.4451C33.7733 22.9902 33.736 23.5353 33.65 23.8341C33.6271 23.9393 33.5755 24.0389 33.4923 24.1191C33.3662 24.2575 33.1856 24.3101 33.0136 24.2907ZM20.6 27.2873L22.5724 25.3836L16.5405 19.5565C16.271 19.2964 15.9098 19.1636 15.5543 19.1636C15.196 19.1636 14.8376 19.2936 14.5681 19.5565C14.2986 19.8166 14.161 20.1652 14.161 20.5083C14.161 20.8542 14.2958 21.2 14.5681 21.4601L16.5721 23.3942L20.6 27.2873ZM23.444 24.5425L25.4164 22.6388L17.5067 15.0049C17.2372 14.7448 16.8759 14.612 16.5205 14.612C16.1621 14.612 15.8037 14.742 15.5343 15.0049C15.2648 15.265 15.1272 15.6136 15.1272 15.9567C15.1272 16.3026 15.2619 16.6484 15.5343 16.9085L23.444 24.5425ZM26.2736 21.8254C27.0763 21.1475 28.0883 20.8071 29.0974 20.8071C29.1204 20.8071 29.1433 20.8099 29.1662 20.8071L22.2227 14.1084C21.9532 13.8483 21.592 13.7155 21.2365 13.7155C20.8781 13.7155 20.5226 13.8455 20.2503 14.1084C20.1209 14.2335 20.0184 14.3819 19.9486 14.5452C19.8787 14.7085 19.8429 14.8835 19.8432 15.0602C19.8432 15.4061 19.9779 15.7519 20.2503 16.012L26.2736 21.8254ZM18.7394 30.887C18.7394 30.8566 18.7365 30.8262 18.7365 30.7985C18.7251 29.8301 19.0691 28.8616 19.783 28.0897L15.7435 24.1911C15.614 24.0663 15.4602 23.9673 15.2909 23.8999C15.1217 23.8325 14.9404 23.7979 14.7573 23.7982C14.399 23.7982 14.0406 23.9282 13.7711 24.1911C13.4988 24.4539 13.364 24.7998 13.364 25.1429C13.364 25.4888 13.4988 25.8319 13.7711 26.0947L18.7394 30.887Z" fill="white"/>
<path fill-rule="evenodd" clip-rule="evenodd" d="M12.9483 23.3942C13.298 23.0562 13.7424 22.8244 14.227 22.7274L13.7396 22.257C13.5025 22.0276 13.3146 21.7553 13.1867 21.4557C13.0587 21.1561 12.9933 20.8351 12.9942 20.5111C12.9942 19.8802 13.2408 19.2466 13.7396 18.7651C14.1237 18.3944 14.5996 18.1675 15.1014 18.0817L14.7086 17.7026C14.4715 17.4732 14.2836 17.2009 14.1557 16.9013C14.0277 16.6017 13.9623 16.2807 13.9632 15.9567C13.9661 15.3286 14.2155 14.695 14.7115 14.2135C14.9491 13.9847 15.2313 13.8033 15.5417 13.6799C15.8521 13.5564 16.1847 13.4933 16.5205 13.4941C17.1741 13.4941 17.8306 13.7321 18.3295 14.2135L18.7279 14.5981C18.8197 14.1278 19.0519 13.6795 19.4303 13.3171C19.668 13.0882 19.9501 12.9068 20.2606 12.7834C20.571 12.6599 20.9036 12.5968 21.2393 12.5977C21.893 12.5977 22.5524 12.8384 23.0483 13.3171L31.6461 21.6151C31.8152 21.7368 31.9786 21.8696 32.1334 22.019L32.638 22.506L32.6409 22.423C32.6609 21.8392 32.6609 21.2526 32.6581 21.0312C32.6552 19.5426 33.3232 18.5825 34.1919 18.1481C34.5752 17.9559 35.0046 17.8652 35.4361 17.8852C35.8604 17.9046 36.2818 18.0291 36.666 18.256C37.5719 18.7928 38.2571 19.9106 38.1596 21.5708V21.6068L38.1969 29.321L38.1997 29.3237C38.1997 29.3403 38.1997 29.3597 38.1969 29.3791C38.1739 30.4803 37.9876 31.3989 37.6149 32.2345C37.2365 33.084 36.6746 33.8255 35.9149 34.5588L33.3404 37.0435C31.97 38.366 30.1754 39.0135 28.3836 39.0052C26.5774 38.9914 24.777 38.3135 23.4038 36.9881L20.0123 33.7148C19.8948 33.6014 19.783 33.4797 19.6797 33.3579C19.6281 33.3302 19.5794 33.297 19.5364 33.2528L12.9512 26.8861C12.7141 26.6567 12.5262 26.3844 12.3983 26.0848C12.2704 25.7852 12.205 25.4642 12.2058 25.1401C12.2029 24.5065 12.4524 23.8756 12.9483 23.3942ZM16.2997 35.2034C16.6695 35.3086 16.8817 35.6849 16.7727 36.0418C16.7201 36.2134 16.599 36.3578 16.4362 36.4434C16.2733 36.529 16.082 36.5487 15.9041 36.4984C13.6163 35.8509 11.7987 34.8493 10.3796 33.5461C8.95764 32.2401 7.94277 30.6408 7.26332 28.8035C7.13431 28.4521 7.32639 28.0648 7.69049 27.943C8.05458 27.8185 8.45594 28.0039 8.58208 28.3553C9.18699 29.9961 10.0872 31.4155 11.3429 32.5693C12.6043 33.7259 14.2327 34.6196 16.2997 35.2034ZM25.2931 10.3315C24.9433 10.1738 24.7942 9.76985 24.9577 9.43229C25.1211 9.09472 25.5396 8.95084 25.8894 9.10855C26.9587 9.59553 27.8933 10.1821 28.7104 10.8573C29.5303 11.5379 30.227 12.3044 30.8118 13.1538C31.024 13.4637 30.938 13.8843 30.614 14.089C30.2929 14.2938 29.8571 14.2108 29.645 13.8981C29.1318 13.151 28.5183 12.4759 27.8016 11.881C27.0791 11.2861 26.2478 10.7659 25.2931 10.3315ZM26.4169 6.32226C26.2391 6.27141 26.0895 6.1546 26.0008 5.99744C25.9122 5.84028 25.8917 5.65559 25.9439 5.48388C25.9966 5.31231 26.1176 5.1679 26.2804 5.08231C26.4433 4.99673 26.6346 4.97696 26.8125 5.02734C29.1003 5.6748 30.9179 6.67643 32.337 7.97965C33.759 9.28564 34.7738 10.8849 35.4533 12.7222C35.5823 13.0736 35.3902 13.4609 35.0261 13.5827C34.662 13.7072 34.2607 13.5218 34.1345 13.1704C33.5296 11.5296 32.6294 10.1102 31.3737 8.95637C30.1123 7.7998 28.4839 6.90608 26.4169 6.32226ZM33.0136 24.2907C32.0388 24.7085 31.2676 25.1982 30.6943 25.735C30.0951 26.2967 29.7167 26.9027 29.5561 27.5225C29.3984 28.1229 29.4529 28.7454 29.7081 29.3542C29.9088 29.8301 30.2298 30.2949 30.6771 30.7376L29.8485 31.5179C29.2924 30.9645 28.8853 30.3779 28.633 29.7803C28.2804 28.9474 28.2144 28.0897 28.4323 27.2513C28.6445 26.4323 29.129 25.6465 29.8829 24.9354C30.4477 24.4069 31.1587 23.9227 32.0216 23.5021L31.3049 22.8104C31.216 22.7246 31.1243 22.6471 31.0268 22.5724C30.9724 22.5531 30.9208 22.5254 30.8749 22.4866C30.2781 22.121 29.5714 21.9592 28.8681 22.0273C28.1743 22.0965 27.4977 22.3815 26.9702 22.8934L26.7638 23.0926L26.7495 23.1064L26.7351 23.1203L23.9399 25.818L23.917 25.8402L23.8941 25.8623L21.0989 28.5601C21.0558 28.6016 21.0071 28.6375 20.9526 28.6624L20.8494 28.762C20.343 29.2503 20.0271 29.8925 19.955 30.5799C19.9206 30.9092 19.9406 31.2384 20.0123 31.5622C20.1556 32.0547 20.4309 32.5223 20.8351 32.9124L24.2266 36.1857C25.3791 37.298 26.8871 37.8652 28.3893 37.8735C29.8801 37.8818 31.3709 37.3395 32.5119 36.2383L35.0863 33.7536C35.7514 33.1116 36.2331 32.4808 36.5456 31.778C36.8581 31.0835 37.0129 30.2977 37.0301 29.3459V29.3044L36.9928 21.5985C36.9899 21.5736 36.9899 21.5459 36.9928 21.5182L37.5748 21.5514L36.9957 21.5182C37.0702 20.3201 36.6316 19.5426 36.0467 19.1995C35.8346 19.0723 35.6024 19.0031 35.373 18.9948C35.1437 18.9837 34.92 19.028 34.7165 19.1304C34.2033 19.3877 33.8106 20.0075 33.8106 21.0174C33.8106 21.2498 33.8106 21.8641 33.7934 22.4451C33.7733 22.9902 33.736 23.5353 33.65 23.8341C33.6271 23.9393 33.5755 24.0389 33.4923 24.1191C33.3662 24.2575 33.1856 24.3101 33.0136 24.2907ZM20.6 27.2873L22.5724 25.3836L16.5405 19.5565C16.271 19.2964 15.9098 19.1636 15.5543 19.1636C15.196 19.1636 14.8376 19.2936 14.5681 19.5565C14.2986 19.8166 14.161 20.1652 14.161 20.5083C14.161 20.8542 14.2958 21.2 14.5681 21.4601L16.5721 23.3942L20.6 27.2873ZM23.444 24.5425L25.4164 22.6388L17.5067 15.0049C17.2372 14.7448 16.8759 14.612 16.5205 14.612C16.1621 14.612 15.8037 14.742 15.5343 15.0049C15.2648 15.265 15.1272 15.6136 15.1272 15.9567C15.1272 16.3026 15.2619 16.6484 15.5343 16.9085L23.444 24.5425ZM26.2736 21.8254C27.0763 21.1475 28.0883 20.8071 29.0974 20.8071C29.1204 20.8071 29.1433 20.8099 29.1662 20.8071L22.2227 14.1084C21.9532 13.8483 21.592 13.7155 21.2365 13.7155C20.8781 13.7155 20.5226 13.8455 20.2503 14.1084C20.1209 14.2335 20.0184 14.3819 19.9486 14.5452C19.8787 14.7085 19.8429 14.8835 19.8432 15.0602C19.8432 15.4061 19.9779 15.7519 20.2503 16.012L26.2736 21.8254ZM18.7394 30.887C18.7394 30.8566 18.7365 30.8262 18.7365 30.7985C18.7251 29.8301 19.0691 28.8616 19.783 28.0897L15.7435 24.1911C15.614 24.0663 15.4602 23.9673 15.2909 23.8999C15.1217 23.8325 14.9404 23.7979 14.7573 23.7982C14.399 23.7982 14.0406 23.9282 13.7711 24.1911C13.4988 24.4539 13.364 24.7998 13.364 25.1429C13.364 25.4888 13.4988 25.8319 13.7711 26.0947L18.7394 30.887Z" fill="url(#paint0_angular_232_2392)" fill-opacity="0.79"/>
<path fill-rule="evenodd" clip-rule="evenodd" d="M12.9483 23.3942C13.298 23.0562 13.7424 22.8244 14.227 22.7274L13.7396 22.257C13.5025 22.0276 13.3146 21.7553 13.1867 21.4557C13.0587 21.1561 12.9933 20.8351 12.9942 20.5111C12.9942 19.8802 13.2408 19.2466 13.7396 18.7651C14.1237 18.3944 14.5996 18.1675 15.1014 18.0817L14.7086 17.7026C14.4715 17.4732 14.2836 17.2009 14.1557 16.9013C14.0277 16.6017 13.9623 16.2807 13.9632 15.9567C13.9661 15.3286 14.2155 14.695 14.7115 14.2135C14.9491 13.9847 15.2313 13.8033 15.5417 13.6799C15.8521 13.5564 16.1847 13.4933 16.5205 13.4941C17.1741 13.4941 17.8306 13.7321 18.3295 14.2135L18.7279 14.5981C18.8197 14.1278 19.0519 13.6795 19.4303 13.3171C19.668 13.0882 19.9501 12.9068 20.2606 12.7834C20.571 12.6599 20.9036 12.5968 21.2393 12.5977C21.893 12.5977 22.5524 12.8384 23.0483 13.3171L31.6461 21.6151C31.8152 21.7368 31.9786 21.8696 32.1334 22.019L32.638 22.506L32.6409 22.423C32.6609 21.8392 32.6609 21.2526 32.6581 21.0312C32.6552 19.5426 33.3232 18.5825 34.1919 18.1481C34.5752 17.9559 35.0046 17.8652 35.4361 17.8852C35.8604 17.9046 36.2818 18.0291 36.666 18.256C37.5719 18.7928 38.2571 19.9106 38.1596 21.5708V21.6068L38.1969 29.321L38.1997 29.3237C38.1997 29.3403 38.1997 29.3597 38.1969 29.3791C38.1739 30.4803 37.9876 31.3989 37.6149 32.2345C37.2365 33.084 36.6746 33.8255 35.9149 34.5588L33.3404 37.0435C31.97 38.366 30.1754 39.0135 28.3836 39.0052C26.5774 38.9914 24.777 38.3135 23.4038 36.9881L20.0123 33.7148C19.8948 33.6014 19.783 33.4797 19.6797 33.3579C19.6281 33.3302 19.5794 33.297 19.5364 33.2528L12.9512 26.8861C12.7141 26.6567 12.5262 26.3844 12.3983 26.0848C12.2704 25.7852 12.205 25.4642 12.2058 25.1401C12.2029 24.5065 12.4524 23.8756 12.9483 23.3942ZM16.2997 35.2034C16.6695 35.3086 16.8817 35.6849 16.7727 36.0418C16.7201 36.2134 16.599 36.3578 16.4362 36.4434C16.2733 36.529 16.082 36.5487 15.9041 36.4984C13.6163 35.8509 11.7987 34.8493 10.3796 33.5461C8.95764 32.2401 7.94277 30.6408 7.26332 28.8035C7.13431 28.4521 7.32639 28.0648 7.69049 27.943C8.05458 27.8185 8.45594 28.0039 8.58208 28.3553C9.18699 29.9961 10.0872 31.4155 11.3429 32.5693C12.6043 33.7259 14.2327 34.6196 16.2997 35.2034ZM25.2931 10.3315C24.9433 10.1738 24.7942 9.76985 24.9577 9.43229C25.1211 9.09472 25.5396 8.95084 25.8894 9.10855C26.9587 9.59553 27.8933 10.1821 28.7104 10.8573C29.5303 11.5379 30.227 12.3044 30.8118 13.1538C31.024 13.4637 30.938 13.8843 30.614 14.089C30.2929 14.2938 29.8571 14.2108 29.645 13.8981C29.1318 13.151 28.5183 12.4759 27.8016 11.881C27.0791 11.2861 26.2478 10.7659 25.2931 10.3315ZM26.4169 6.32226C26.2391 6.27141 26.0895 6.1546 26.0008 5.99744C25.9122 5.84028 25.8917 5.65559 25.9439 5.48388C25.9966 5.31231 26.1176 5.1679 26.2804 5.08231C26.4433 4.99673 26.6346 4.97696 26.8125 5.02734C29.1003 5.6748 30.9179 6.67643 32.337 7.97965C33.759 9.28564 34.7738 10.8849 35.4533 12.7222C35.5823 13.0736 35.3902 13.4609 35.0261 13.5827C34.662 13.7072 34.2607 13.5218 34.1345 13.1704C33.5296 11.5296 32.6294 10.1102 31.3737 8.95637C30.1123 7.7998 28.4839 6.90608 26.4169 6.32226ZM33.0136 24.2907C32.0388 24.7085 31.2676 25.1982 30.6943 25.735C30.0951 26.2967 29.7167 26.9027 29.5561 27.5225C29.3984 28.1229 29.4529 28.7454 29.7081 29.3542C29.9088 29.8301 30.2298 30.2949 30.6771 30.7376L29.8485 31.5179C29.2924 30.9645 28.8853 30.3779 28.633 29.7803C28.2804 28.9474 28.2144 28.0897 28.4323 27.2513C28.6445 26.4323 29.129 25.6465 29.8829 24.9354C30.4477 24.4069 31.1587 23.9227 32.0216 23.5021L31.3049 22.8104C31.216 22.7246 31.1243 22.6471 31.0268 22.5724C30.9724 22.5531 30.9208 22.5254 30.8749 22.4866C30.2781 22.121 29.5714 21.9592 28.8681 22.0273C28.1743 22.0965 27.4977 22.3815 26.9702 22.8934L26.7638 23.0926L26.7495 23.1064L26.7351 23.1203L23.9399 25.818L23.917 25.8402L23.8941 25.8623L21.0989 28.5601C21.0558 28.6016 21.0071 28.6375 20.9526 28.6624L20.8494 28.762C20.343 29.2503 20.0271 29.8925 19.955 30.5799C19.9206 30.9092 19.9406 31.2384 20.0123 31.5622C20.1556 32.0547 20.4309 32.5223 20.8351 32.9124L24.2266 36.1857C25.3791 37.298 26.8871 37.8652 28.3893 37.8735C29.8801 37.8818 31.3709 37.3395 32.5119 36.2383L35.0863 33.7536C35.7514 33.1116 36.2331 32.4808 36.5456 31.778C36.8581 31.0835 37.0129 30.2977 37.0301 29.3459V29.3044L36.9928 21.5985C36.9899 21.5736 36.9899 21.5459 36.9928 21.5182L37.5748 21.5514L36.9957 21.5182C37.0702 20.3201 36.6316 19.5426 36.0467 19.1995C35.8346 19.0723 35.6024 19.0031 35.373 18.9948C35.1437 18.9837 34.92 19.028 34.7165 19.1304C34.2033 19.3877 33.8106 20.0075 33.8106 21.0174C33.8106 21.2498 33.8106 21.8641 33.7934 22.4451C33.7733 22.9902 33.736 23.5353 33.65 23.8341C33.6271 23.9393 33.5755 24.0389 33.4923 24.1191C33.3662 24.2575 33.1856 24.3101 33.0136 24.2907ZM20.6 27.2873L22.5724 25.3836L16.5405 19.5565C16.271 19.2964 15.9098 19.1636 15.5543 19.1636C15.196 19.1636 14.8376 19.2936 14.5681 19.5565C14.2986 19.8166 14.161 20.1652 14.161 20.5083C14.161 20.8542 14.2958 21.2 14.5681 21.4601L16.5721 23.3942L20.6 27.2873ZM23.444 24.5425L25.4164 22.6388L17.5067 15.0049C17.2372 14.7448 16.8759 14.612 16.5205 14.612C16.1621 14.612 15.8037 14.742 15.5343 15.0049C15.2648 15.265 15.1272 15.6136 15.1272 15.9567C15.1272 16.3026 15.2619 16.6484 15.5343 16.9085L23.444 24.5425ZM26.2736 21.8254C27.0763 21.1475 28.0883 20.8071 29.0974 20.8071C29.1204 20.8071 29.1433 20.8099 29.1662 20.8071L22.2227 14.1084C21.9532 13.8483 21.592 13.7155 21.2365 13.7155C20.8781 13.7155 20.5226 13.8455 20.2503 14.1084C20.1209 14.2335 20.0184 14.3819 19.9486 14.5452C19.8787 14.7085 19.8429 14.8835 19.8432 15.0602C19.8432 15.4061 19.9779 15.7519 20.2503 16.012L26.2736 21.8254ZM18.7394 30.887C18.7394 30.8566 18.7365 30.8262 18.7365 30.7985C18.7251 29.8301 19.0691 28.8616 19.783 28.0897L15.7435 24.1911C15.614 24.0663 15.4602 23.9673 15.2909 23.8999C15.1217 23.8325 14.9404 23.7979 14.7573 23.7982C14.399 23.7982 14.0406 23.9282 13.7711 24.1911C13.4988 24.4539 13.364 24.7998 13.364 25.1429C13.364 25.4888 13.4988 25.8319 13.7711 26.0947L18.7394 30.887Z" stroke="white" stroke-width="1.4" mask="url(#path-2-outside-1_232_2392)"/>
<path fill-rule="evenodd" clip-rule="evenodd" d="M12.9483 23.3942C13.298 23.0562 13.7424 22.8244 14.227 22.7274L13.7396 22.257C13.5025 22.0276 13.3146 21.7553 13.1867 21.4557C13.0587 21.1561 12.9933 20.8351 12.9942 20.5111C12.9942 19.8802 13.2408 19.2466 13.7396 18.7651C14.1237 18.3944 14.5996 18.1675 15.1014 18.0817L14.7086 17.7026C14.4715 17.4732 14.2836 17.2009 14.1557 16.9013C14.0277 16.6017 13.9623 16.2807 13.9632 15.9567C13.9661 15.3286 14.2155 14.695 14.7115 14.2135C14.9491 13.9847 15.2313 13.8033 15.5417 13.6799C15.8521 13.5564 16.1847 13.4933 16.5205 13.4941C17.1741 13.4941 17.8306 13.7321 18.3295 14.2135L18.7279 14.5981C18.8197 14.1278 19.0519 13.6795 19.4303 13.3171C19.668 13.0882 19.9501 12.9068 20.2606 12.7834C20.571 12.6599 20.9036 12.5968 21.2393 12.5977C21.893 12.5977 22.5524 12.8384 23.0483 13.3171L31.6461 21.6151C31.8152 21.7368 31.9786 21.8696 32.1334 22.019L32.638 22.506L32.6409 22.423C32.6609 21.8392 32.6609 21.2526 32.6581 21.0312C32.6552 19.5426 33.3232 18.5825 34.1919 18.1481C34.5752 17.9559 35.0046 17.8652 35.4361 17.8852C35.8604 17.9046 36.2818 18.0291 36.666 18.256C37.5719 18.7928 38.2571 19.9106 38.1596 21.5708V21.6068L38.1969 29.321L38.1997 29.3237C38.1997 29.3403 38.1997 29.3597 38.1969 29.3791C38.1739 30.4803 37.9876 31.3989 37.6149 32.2345C37.2365 33.084 36.6746 33.8255 35.9149 34.5588L33.3404 37.0435C31.97 38.366 30.1754 39.0135 28.3836 39.0052C26.5774 38.9914 24.777 38.3135 23.4038 36.9881L20.0123 33.7148C19.8948 33.6014 19.783 33.4797 19.6797 33.3579C19.6281 33.3302 19.5794 33.297 19.5364 33.2528L12.9512 26.8861C12.7141 26.6567 12.5262 26.3844 12.3983 26.0848C12.2704 25.7852 12.205 25.4642 12.2058 25.1401C12.2029 24.5065 12.4524 23.8756 12.9483 23.3942ZM16.2997 35.2034C16.6695 35.3086 16.8817 35.6849 16.7727 36.0418C16.7201 36.2134 16.599 36.3578 16.4362 36.4434C16.2733 36.529 16.082 36.5487 15.9041 36.4984C13.6163 35.8509 11.7987 34.8493 10.3796 33.5461C8.95764 32.2401 7.94277 30.6408 7.26332 28.8035C7.13431 28.4521 7.32639 28.0648 7.69049 27.943C8.05458 27.8185 8.45594 28.0039 8.58208 28.3553C9.18699 29.9961 10.0872 31.4155 11.3429 32.5693C12.6043 33.7259 14.2327 34.6196 16.2997 35.2034ZM25.2931 10.3315C24.9433 10.1738 24.7942 9.76985 24.9577 9.43229C25.1211 9.09472 25.5396 8.95084 25.8894 9.10855C26.9587 9.59553 27.8933 10.1821 28.7104 10.8573C29.5303 11.5379 30.227 12.3044 30.8118 13.1538C31.024 13.4637 30.938 13.8843 30.614 14.089C30.2929 14.2938 29.8571 14.2108 29.645 13.8981C29.1318 13.151 28.5183 12.4759 27.8016 11.881C27.0791 11.2861 26.2478 10.7659 25.2931 10.3315ZM26.4169 6.32226C26.2391 6.27141 26.0895 6.1546 26.0008 5.99744C25.9122 5.84028 25.8917 5.65559 25.9439 5.48388C25.9966 5.31231 26.1176 5.1679 26.2804 5.08231C26.4433 4.99673 26.6346 4.97696 26.8125 5.02734C29.1003 5.6748 30.9179 6.67643 32.337 7.97965C33.759 9.28564 34.7738 10.8849 35.4533 12.7222C35.5823 13.0736 35.3902 13.4609 35.0261 13.5827C34.662 13.7072 34.2607 13.5218 34.1345 13.1704C33.5296 11.5296 32.6294 10.1102 31.3737 8.95637C30.1123 7.7998 28.4839 6.90608 26.4169 6.32226ZM33.0136 24.2907C32.0388 24.7085 31.2676 25.1982 30.6943 25.735C30.0951 26.2967 29.7167 26.9027 29.5561 27.5225C29.3984 28.1229 29.4529 28.7454 29.7081 29.3542C29.9088 29.8301 30.2298 30.2949 30.6771 30.7376L29.8485 31.5179C29.2924 30.9645 28.8853 30.3779 28.633 29.7803C28.2804 28.9474 28.2144 28.0897 28.4323 27.2513C28.6445 26.4323 29.129 25.6465 29.8829 24.9354C30.4477 24.4069 31.1587 23.9227 32.0216 23.5021L31.3049 22.8104C31.216 22.7246 31.1243 22.6471 31.0268 22.5724C30.9724 22.5531 30.9208 22.5254 30.8749 22.4866C30.2781 22.121 29.5714 21.9592 28.8681 22.0273C28.1743 22.0965 27.4977 22.3815 26.9702 22.8934L26.7638 23.0926L26.7495 23.1064L26.7351 23.1203L23.9399 25.818L23.917 25.8402L23.8941 25.8623L21.0989 28.5601C21.0558 28.6016 21.0071 28.6375 20.9526 28.6624L20.8494 28.762C20.343 29.2503 20.0271 29.8925 19.955 30.5799C19.9206 30.9092 19.9406 31.2384 20.0123 31.5622C20.1556 32.0547 20.4309 32.5223 20.8351 32.9124L24.2266 36.1857C25.3791 37.298 26.8871 37.8652 28.3893 37.8735C29.8801 37.8818 31.3709 37.3395 32.5119 36.2383L35.0863 33.7536C35.7514 33.1116 36.2331 32.4808 36.5456 31.778C36.8581 31.0835 37.0129 30.2977 37.0301 29.3459V29.3044L36.9928 21.5985C36.9899 21.5736 36.9899 21.5459 36.9928 21.5182L37.5748 21.5514L36.9957 21.5182C37.0702 20.3201 36.6316 19.5426 36.0467 19.1995C35.8346 19.0723 35.6024 19.0031 35.373 18.9948C35.1437 18.9837 34.92 19.028 34.7165 19.1304C34.2033 19.3877 33.8106 20.0075 33.8106 21.0174C33.8106 21.2498 33.8106 21.8641 33.7934 22.4451C33.7733 22.9902 33.736 23.5353 33.65 23.8341C33.6271 23.9393 33.5755 24.0389 33.4923 24.1191C33.3662 24.2575 33.1856 24.3101 33.0136 24.2907ZM20.6 27.2873L22.5724 25.3836L16.5405 19.5565C16.271 19.2964 15.9098 19.1636 15.5543 19.1636C15.196 19.1636 14.8376 19.2936 14.5681 19.5565C14.2986 19.8166 14.161 20.1652 14.161 20.5083C14.161 20.8542 14.2958 21.2 14.5681 21.4601L16.5721 23.3942L20.6 27.2873ZM23.444 24.5425L25.4164 22.6388L17.5067 15.0049C17.2372 14.7448 16.8759 14.612 16.5205 14.612C16.1621 14.612 15.8037 14.742 15.5343 15.0049C15.2648 15.265 15.1272 15.6136 15.1272 15.9567C15.1272 16.3026 15.2619 16.6484 15.5343 16.9085L23.444 24.5425ZM26.2736 21.8254C27.0763 21.1475 28.0883 20.8071 29.0974 20.8071C29.1204 20.8071 29.1433 20.8099 29.1662 20.8071L22.2227 14.1084C21.9532 13.8483 21.592 13.7155 21.2365 13.7155C20.8781 13.7155 20.5226 13.8455 20.2503 14.1084C20.1209 14.2335 20.0184 14.3819 19.9486 14.5452C19.8787 14.7085 19.8429 14.8835 19.8432 15.0602C19.8432 15.4061 19.9779 15.7519 20.2503 16.012L26.2736 21.8254ZM18.7394 30.887C18.7394 30.8566 18.7365 30.8262 18.7365 30.7985C18.7251 29.8301 19.0691 28.8616 19.783 28.0897L15.7435 24.1911C15.614 24.0663 15.4602 23.9673 15.2909 23.8999C15.1217 23.8325 14.9404 23.7979 14.7573 23.7982C14.399 23.7982 14.0406 23.9282 13.7711 24.1911C13.4988 24.4539 13.364 24.7998 13.364 25.1429C13.364 25.4888 13.4988 25.8319 13.7711 26.0947L18.7394 30.887Z" stroke="url(#paint1_angular_232_2392)" stroke-opacity="0.79" stroke-width="1.4" mask="url(#path-2-outside-1_232_2392)"/>
</g>
<defs>
<radialGradient id="paint0_angular_232_2392" cx="0" cy="0" r="1" gradientUnits="userSpaceOnUse" gradientTransform="translate(22.7114 22.0026) rotate(56.5219) scale(12.3621 12.2872)">
<stop offset="0.145833" stop-color="white"/>
<stop offset="0.583333" stop-color="#FFFEFB" stop-opacity="0.58"/>
<stop offset="1" stop-color="#FFFDF5" stop-opacity="0.67"/>
</radialGradient>
<radialGradient id="paint1_angular_232_2392" cx="0" cy="0" r="1" gradientUnits="userSpaceOnUse" gradientTransform="translate(22.7114 22.0026) rotate(56.5219) scale(12.3621 12.2872)">
<stop offset="0.145833" stop-color="white"/>
<stop offset="0.583333" stop-color="#FFFEFB" stop-opacity="0.58"/>
<stop offset="1" stop-color="#FFFDF5" stop-opacity="0.67"/>
</radialGradient>
<clipPath id="clip0_232_2392">
<rect width="30.9766" height="34" fill="white" transform="translate(7.22803 5)"/>
</clipPath>
</defs>
</svg>
