<svg width="180" height="39" viewBox="0 0 180 39" fill="none" xmlns="http://www.w3.org/2000/svg">
<path d="M32.3238 4.77584C31.8515 4.77584 31.3898 4.63579 30.9971 4.3734C30.6044 4.11101 30.2984 3.73807 30.1176 3.30173C29.9369 2.8654 29.8896 2.38527 29.9817 1.92206C30.0739 1.45885 30.3013 1.03336 30.6353 0.699406C30.9692 0.365449 31.3947 0.138023 31.8579 0.0458842C32.3211 -0.0462541 32.8012 0.00103464 33.2376 0.18177C33.6739 0.362506 34.0469 0.668572 34.3092 1.06126C34.5716 1.45395 34.7117 1.91563 34.7117 2.38792C34.7117 3.02123 34.4601 3.62861 34.0123 4.07643C33.5645 4.52425 32.9571 4.77584 32.3238 4.77584ZM32.3238 0.823421C32.0143 0.823421 31.7119 0.915177 31.4546 1.08709C31.1973 1.259 30.9968 1.50334 30.8784 1.78921C30.7599 2.07509 30.729 2.38965 30.7893 2.69314C30.8497 2.99662 30.9987 3.27539 31.2175 3.49419C31.4363 3.71298 31.7151 3.86199 32.0185 3.92235C32.322 3.98272 32.6366 3.95174 32.9225 3.83333C33.2083 3.71491 33.4527 3.51439 33.6246 3.25711C33.7965 2.99983 33.8883 2.69735 33.8883 2.38792C33.8883 1.97299 33.7234 1.57505 33.43 1.28165C33.1366 0.988251 32.7387 0.823421 32.3238 0.823421ZM2.51597 29.3961C2.04368 29.3961 1.58201 29.256 1.18931 28.9937C0.796623 28.7313 0.490558 28.3583 0.309822 27.922C0.129086 27.4857 0.0817977 27.0055 0.173936 26.5423C0.266074 26.0791 0.493501 25.6536 0.827458 25.3197C1.16141 24.9857 1.5869 24.7583 2.05011 24.6661C2.51332 24.574 2.99345 24.6213 3.42979 24.802C3.86612 24.9828 4.23906 25.2888 4.50145 25.6815C4.76384 26.0742 4.90389 26.5359 4.90389 27.0082C4.90389 27.3218 4.84212 27.6323 4.72212 27.922C4.60211 28.2117 4.42622 28.4749 4.20448 28.6967C3.98274 28.9184 3.7195 29.0943 3.42979 29.2143C3.14007 29.3343 2.82956 29.3961 2.51597 29.3961ZM2.51597 25.4437C2.20654 25.4437 1.90406 25.5354 1.64678 25.7073C1.3895 25.8792 1.18898 26.1236 1.07056 26.4095C0.95215 26.6953 0.921167 27.0099 0.981534 27.3134C1.0419 27.6169 1.1909 27.8956 1.4097 28.1144C1.6285 28.3332 1.90727 28.4822 2.21075 28.5426C2.51423 28.603 2.8288 28.572 3.11468 28.4536C3.40055 28.3352 3.64489 28.1346 3.8168 27.8774C3.98871 27.6201 4.08047 27.3176 4.08047 27.0082C4.08047 26.5932 3.91564 26.1953 3.62224 25.9019C3.32884 25.6085 2.9309 25.4437 2.51597 25.4437ZM36.0991 9.49238C35.7246 9.49238 35.3584 9.38131 35.047 9.17321C34.7355 8.96511 34.4928 8.66933 34.3494 8.32327C34.2061 7.97721 34.1686 7.59642 34.2417 7.22904C34.3147 6.86167 34.4951 6.52422 34.76 6.25935C35.0248 5.99449 35.3623 5.81412 35.7297 5.74104C36.097 5.66797 36.4778 5.70547 36.8239 5.84882C37.17 5.99216 37.4657 6.2349 37.6738 6.54634C37.8819 6.85779 37.993 7.22395 37.993 7.59852C37.993 8.1008 37.7935 8.58252 37.4383 8.93768C37.0831 9.29285 36.6014 9.49238 36.0991 9.49238ZM36.0991 6.52807C35.8874 6.52807 35.6805 6.59085 35.5044 6.70848C35.3284 6.8261 35.1912 6.99328 35.1102 7.18888C35.0292 7.38448 35.008 7.59971 35.0493 7.80735C35.0906 8.015 35.1925 8.20573 35.3422 8.35544C35.4919 8.50514 35.6827 8.60709 35.8903 8.6484C36.098 8.6897 36.3132 8.6685 36.5088 8.58748C36.7044 8.50646 36.8716 8.36926 36.9892 8.19323C37.1068 8.01719 37.1696 7.81023 37.1696 7.59852C37.1696 7.31462 37.0568 7.04235 36.8561 6.8416C36.6553 6.64085 36.383 6.52807 36.0991 6.52807ZM35.6874 36.8299C35.3129 36.8299 34.9467 36.7188 34.6353 36.5107C34.3238 36.3027 34.0811 36.0069 33.9377 35.6608C33.7944 35.3148 33.7569 34.934 33.83 34.5666C33.903 34.1992 34.0834 33.8618 34.3483 33.5969C34.6131 33.332 34.9506 33.1517 35.318 33.0786C35.6853 33.0055 36.0661 33.043 36.4122 33.1864C36.7582 33.3297 37.054 33.5724 37.2621 33.8839C37.4702 34.1953 37.5813 34.5615 37.5813 34.9361C37.5813 35.4383 37.3818 35.9201 37.0266 36.2752C36.6714 36.6304 36.1897 36.8299 35.6874 36.8299ZM35.6874 33.8656C35.4757 33.8656 35.2688 33.9284 35.0927 34.046C34.9167 34.1636 34.7795 34.3308 34.6985 34.5264C34.6175 34.722 34.5963 34.9372 34.6376 35.1449C34.6789 35.3525 34.7808 35.5433 34.9305 35.693C35.0802 35.8427 35.271 35.9446 35.4786 35.9859C35.6862 36.0272 35.9015 36.006 36.0971 35.925C36.2927 35.844 36.4599 35.7068 36.5775 35.5308C36.6951 35.3547 36.7579 35.1478 36.7579 34.9361C36.7579 34.6522 36.6451 34.3799 36.4444 34.1791C36.2436 33.9784 35.9713 33.8656 35.6874 33.8656ZM10.9898 26.6475C10.3324 26.6474 9.67713 26.5725 9.03663 26.4244C8.14569 26.2177 6.89574 25.773 6.00315 24.8343C4.55723 23.3135 4.67498 21.2591 5.01505 19.2647C6.01056 13.472 10.2611 9.92962 10.6143 9.64719C10.8737 9.39604 13.6774 6.77839 18.4261 5.8998C18.4798 5.8885 18.5353 5.88806 18.5892 5.89851C18.6431 5.90896 18.6943 5.93008 18.74 5.96064C18.7856 5.9912 18.8246 6.03057 18.8548 6.07644C18.885 6.12231 18.9057 6.17376 18.9157 6.22775C18.9257 6.28173 18.9247 6.33718 18.913 6.39081C18.9012 6.44444 18.8789 6.49519 18.8472 6.54005C18.8156 6.58491 18.7753 6.62299 18.7287 6.65205C18.6821 6.6811 18.6302 6.70054 18.5759 6.70923C13.9384 7.56805 11.2039 10.2219 11.1767 10.2499C11.1663 10.2602 11.1553 10.2698 11.1438 10.2788C11.1009 10.3133 6.79199 13.8088 5.83023 19.4055C5.5198 21.1907 5.40453 23.0088 6.60013 24.267C7.6187 25.3375 10.0206 26.1683 12.2743 25.7014C14.0661 25.3309 15.6907 24.0974 17.3861 21.8206C19.5649 18.895 23.0298 16.9419 26.2123 16.8447C28.8473 16.7624 31.2484 17.9151 33.1472 20.1623C33.2167 20.2459 33.2503 20.3536 33.2407 20.4619C33.231 20.5703 33.1789 20.6704 33.0957 20.7404C33.0125 20.8104 32.905 20.8447 32.7966 20.8357C32.6882 20.8268 32.5878 20.7753 32.5173 20.6925C30.7617 18.6126 28.6472 17.5957 26.2379 17.6681C23.2966 17.757 20.0812 19.5801 18.0465 22.3122C16.2234 24.7602 14.4424 26.0934 12.4415 26.5116C11.9634 26.6057 11.477 26.6512 10.9898 26.6475Z" fill="#02579E"/>
<path d="M28.4751 33.8105C27.9489 33.8174 27.4362 33.643 27.0234 33.3165C26.5739 32.9632 26.3309 32.5383 26.3021 32.0525C26.2494 31.1731 26.9567 30.4551 26.9864 30.4254C29.6625 27.8399 30.9701 25.2741 30.8762 22.794C30.7626 19.7885 28.5921 17.9539 28.5706 17.9358C28.529 17.9013 28.4946 17.8589 28.4694 17.811C28.4441 17.7632 28.4285 17.7108 28.4235 17.6569C28.4185 17.6031 28.4242 17.5487 28.4402 17.4971C28.4562 17.4454 28.4822 17.3973 28.5167 17.3557C28.5513 17.3141 28.5937 17.2797 28.6415 17.2544C28.6894 17.2292 28.7417 17.2136 28.7956 17.2086C28.8495 17.2036 28.9038 17.2092 28.9555 17.2252C29.0072 17.2412 29.0552 17.2672 29.0968 17.3018C29.1973 17.3841 31.572 19.3933 31.6996 22.7627C31.8026 25.4857 30.4126 28.2598 27.5685 31.0092C27.4335 31.1468 27.0984 31.5856 27.1255 32.0064C27.1404 32.2493 27.2738 32.4659 27.5331 32.6693C28.5517 33.4696 30.0372 32.4807 30.052 32.4708C30.0647 32.4618 30.0779 32.4536 30.0915 32.4461C32.2439 31.3139 35.1522 28.6946 36.2672 25.0419C36.6789 23.68 37.5311 20.1014 36.4689 16.2799C35.3581 12.2847 32.5239 9.39777 28.0461 7.69905C26.829 7.23341 25.5688 6.88947 24.2839 6.67225C24.2291 6.66516 24.1763 6.64709 24.1286 6.61914C24.0809 6.59118 24.0393 6.5539 24.0063 6.50953C23.9733 6.46516 23.9496 6.4146 23.9366 6.36087C23.9236 6.30714 23.9215 6.25134 23.9306 6.19679C23.9396 6.14225 23.9595 6.09008 23.9891 6.0434C24.0187 5.99671 24.0574 5.95647 24.1029 5.92508C24.1484 5.89368 24.1998 5.87177 24.254 5.86065C24.3081 5.84953 24.3639 5.84943 24.4181 5.86036C25.7572 6.08636 27.0704 6.44494 28.3384 6.9308C30.8622 7.88844 32.9208 9.23638 34.4565 10.9293C35.7815 12.396 36.7428 14.1539 37.2627 16.0609C38.3825 20.0882 37.4899 23.8521 37.0543 25.2832C35.8727 29.1681 32.7882 31.9529 30.4975 33.1666C30.3385 33.2679 29.4649 33.8105 28.4751 33.8105Z" fill="#02579E"/>
<path d="M16.897 10.003C16.8141 10.0029 16.733 9.97777 16.6646 9.93086C16.5962 9.88396 16.5435 9.81747 16.5135 9.74012C16.4835 9.66276 16.4776 9.57815 16.4965 9.49736C16.5154 9.41658 16.5583 9.3434 16.6195 9.28741C17.0206 8.92905 17.4655 8.62304 17.9436 8.37671C17.9752 7.21489 18.1588 6.0622 18.4895 4.94799C19.266 2.42092 20.7687 0.895119 22.8363 0.535284C23.654 0.392833 25.1106 0.355779 25.6722 1.70619C26.4067 3.47242 25.025 6.60389 23.4177 7.74185C23.3558 7.78608 23.2828 7.81205 23.2069 7.81679C23.1665 7.81679 19.1359 8.10498 17.1745 9.8951C17.0987 9.96441 16.9997 10.0029 16.897 10.003ZM23.598 1.28789C23.3895 1.28977 23.1815 1.30933 22.9763 1.34635C19.4982 1.95157 18.8913 6.36098 18.7859 7.98559C20.5884 7.25357 22.521 7.04771 23.0299 7.00489C23.6466 6.52813 24.265 5.64625 24.6512 4.6705C25.0686 3.62476 25.1658 2.635 24.9105 2.02238C24.7055 1.53327 24.2675 1.28789 23.598 1.28789ZM20.7803 24.552C19.5031 24.552 17.9938 23.9443 17.3318 22.2135C17.2946 22.1119 17.2988 21.9997 17.3437 21.9012C17.3885 21.8028 17.4703 21.7259 17.5714 21.6873C17.6724 21.6486 17.7847 21.6513 17.8837 21.6948C17.9828 21.7383 18.0608 21.819 18.1009 21.9195C18.7859 23.7121 20.4698 23.7533 20.9697 23.7228C22.0401 23.6586 22.9755 23.0995 23.1451 22.4218C23.2711 21.9154 23.2275 21.5457 23.0068 21.3242C22.7145 21.0261 22.0681 20.9388 21.36 21.1018C20.1248 21.3867 18.781 21.255 18.725 21.2492C18.6164 21.2383 18.5165 21.1847 18.4474 21.1001C18.3783 21.0156 18.3456 20.9071 18.3565 20.7984C18.3675 20.6898 18.4211 20.5899 18.5056 20.5208C18.5902 20.4517 18.6987 20.419 18.8074 20.4299C18.8304 20.4299 20.0787 20.5526 21.1747 20.2998C22.185 20.066 23.0891 20.234 23.5939 20.7469C23.8911 21.05 24.1933 21.6206 23.943 22.6219C23.682 23.666 22.479 24.4573 21.0182 24.5446C20.94 24.5495 20.861 24.552 20.7803 24.552ZM6.32843 16.648C6.2622 16.648 6.19693 16.6321 6.13815 16.6016C6.07938 16.5711 6.02884 16.5268 5.99083 16.4726C4.89732 14.913 4.51608 13.3032 4.94343 12.0549C5.20034 11.3097 5.72815 10.7655 6.39265 10.5637C7.19137 10.3167 7.83776 10.376 8.31369 10.7284C9.01113 11.2447 9.01854 12.1916 9.01854 12.2311C9.01854 12.3403 8.97516 12.4451 8.89795 12.5223C8.82074 12.5995 8.71602 12.6428 8.60683 12.6428C8.49764 12.6428 8.39292 12.5995 8.31571 12.5223C8.2385 12.4451 8.19512 12.3403 8.19512 12.2311C8.19512 12.218 8.18195 11.6498 7.82046 11.3847C7.5652 11.1977 7.16173 11.1854 6.63309 11.3476C6.22138 11.4728 5.89201 11.8268 5.72157 12.3201C5.3782 13.3156 5.72157 14.6553 6.66191 15.9966C6.70514 16.0583 6.73062 16.1306 6.73559 16.2058C6.74056 16.2809 6.72483 16.356 6.6901 16.4228C6.65538 16.4896 6.60299 16.5457 6.53864 16.5848C6.47429 16.6239 6.40044 16.6446 6.32513 16.6447L6.32843 16.648ZM27.3602 38.5773C26.874 38.5871 26.3956 38.4539 25.9843 38.1944C25.7109 38.0145 25.4783 37.7793 25.3013 37.504C25.1243 37.2288 25.0069 36.9195 24.9567 36.5961C24.89 36.0634 24.6907 35.4886 23.1583 35.4079C22.2229 35.3585 21.4868 34.8851 21.1895 34.1399C20.8231 33.2201 21.1747 32.1011 22.1529 31.071C23.9998 29.1269 27.9465 29.4785 28.1136 29.495C28.2198 29.5084 28.3165 29.5626 28.3834 29.6462C28.4502 29.7297 28.4819 29.836 28.4717 29.9425C28.4616 30.049 28.4103 30.1474 28.3289 30.2168C28.2475 30.2862 28.1422 30.3211 28.0354 30.3143C27.9984 30.3143 24.3202 29.9849 22.7499 31.6383C22.0129 32.414 21.7157 33.2349 21.9545 33.8352C22.1323 34.2799 22.5869 34.5532 23.2019 34.5862C24.8043 34.6685 25.622 35.2762 25.7735 36.494C25.8081 36.6985 25.8844 36.8937 25.9978 37.0674C26.1111 37.241 26.259 37.3895 26.4322 37.5035C26.89 37.8008 27.5027 37.8329 28.2503 37.6081C30.0199 37.0696 30.3624 34.8464 30.7206 32.493L30.7634 32.2188C30.7707 32.1645 30.7887 32.1122 30.8164 32.0649C30.8441 32.0176 30.881 31.9764 30.9249 31.9436C30.9687 31.9107 31.0187 31.887 31.0719 31.8737C31.1251 31.8605 31.1804 31.858 31.2345 31.8664C31.2887 31.8747 31.3406 31.8939 31.3873 31.9226C31.4339 31.9513 31.4744 31.989 31.5063 32.0336C31.5382 32.0782 31.5609 32.1286 31.573 32.1821C31.5851 32.2355 31.5865 32.2908 31.577 32.3448L31.535 32.619C31.1496 35.1197 30.7519 37.7069 28.4883 38.3961C28.1232 38.5117 27.7431 38.5727 27.3602 38.5773ZM7.26219 19.9079C7.18858 19.9078 7.11635 19.8879 7.05302 19.8504C6.98968 19.8129 6.93756 19.7591 6.90208 19.6946C6.8666 19.6301 6.84905 19.5573 6.85127 19.4838C6.85349 19.4102 6.8754 19.3386 6.9147 19.2763L7.06045 19.0449C7.11876 18.9526 7.21137 18.8871 7.31792 18.863C7.42447 18.839 7.53623 18.8582 7.62861 18.9165C7.72098 18.9748 7.78641 19.0674 7.8105 19.174C7.83459 19.2805 7.81537 19.3923 7.75706 19.4846L7.61132 19.7152C7.57421 19.7743 7.5227 19.8229 7.46163 19.8566C7.40057 19.8903 7.33194 19.908 7.26219 19.9079ZM13.7277 22.6392C13.6541 22.6391 13.5819 22.6194 13.5186 22.5819C13.4553 22.5445 13.4031 22.4909 13.3676 22.4265C13.332 22.3621 13.3144 22.2894 13.3164 22.2158C13.3185 22.1423 13.3402 22.0707 13.3794 22.0084L13.5251 21.777C13.5841 21.6863 13.6764 21.6224 13.782 21.5992C13.8877 21.576 13.9983 21.5953 14.0898 21.653C14.1814 21.7107 14.2465 21.8021 14.2712 21.9074C14.2959 22.0128 14.2781 22.1236 14.2217 22.2159L14.076 22.4473C14.0389 22.5061 13.9874 22.5545 13.9265 22.5881C13.8656 22.6216 13.7972 22.6392 13.7277 22.6392Z" fill="#02579E"/>
<path d="M5.63921 22.6425C4.33162 22.6425 2.90052 21.9681 1.95441 21.1241C0.782682 20.0775 0.0523082 18.2899 0.00290297 16.3433C-0.0835561 13.0439 1.76749 9.44307 4.71863 7.17126C4.7613 7.13664 4.81046 7.11092 4.86322 7.09561C4.91598 7.08029 4.97128 7.07569 5.02585 7.08207C5.08041 7.08846 5.13315 7.1057 5.18095 7.13279C5.22875 7.15987 5.27065 7.19625 5.30418 7.23977C5.3377 7.2833 5.36217 7.33309 5.37615 7.38623C5.39013 7.43936 5.39334 7.49475 5.38558 7.54914C5.37782 7.60353 5.35925 7.65582 5.33097 7.70292C5.30269 7.75002 5.26527 7.79099 5.22091 7.8234C2.47316 9.94042 0.743981 13.2761 0.826323 16.3219C0.871611 18.0462 1.49906 19.6115 2.50445 20.5098C3.50985 21.4082 5.25138 22.1353 6.46263 21.6849C6.56494 21.6465 6.67829 21.6504 6.77774 21.6957C6.87719 21.7409 6.95459 21.8238 6.99291 21.9261C7.03124 22.0284 7.02735 22.1418 6.98211 22.2412C6.93686 22.3407 6.85397 22.4181 6.75165 22.4564C6.3949 22.5843 6.01815 22.6473 5.63921 22.6425ZM17.3573 29.7116C15.2493 29.7116 13.6223 29.1648 12.5123 28.082C10.933 26.5422 11.0178 24.4993 11.0219 24.4128C11.0274 24.3037 11.076 24.2011 11.1571 24.1278C11.2381 24.0544 11.345 24.0163 11.4542 24.0217C11.5634 24.0272 11.6659 24.0758 11.7393 24.1569C11.8126 24.2379 11.8508 24.3448 11.8453 24.454C11.8453 24.4713 11.7819 26.226 13.0961 27.5007C14.2044 28.5752 15.9632 29.0298 18.3232 28.8494C21.1681 28.6337 23.393 27.4661 24.9344 25.3787C25.6278 24.4457 26.1314 23.3857 26.4166 22.2588C26.4384 22.1518 26.5019 22.0578 26.593 21.9976C26.6841 21.9374 26.7954 21.9158 26.9024 21.9376C27.0094 21.9595 27.1033 22.0229 27.1636 22.114C27.2238 22.2052 27.2454 22.3165 27.2235 22.4235C27.2095 22.4926 26.8727 24.1263 25.6154 25.8415C24.4527 27.4282 22.255 29.3822 18.3825 29.6745C18.03 29.6987 17.6883 29.711 17.3573 29.7116ZM18.9416 21.1719C18.8997 21.1716 18.8581 21.1652 18.818 21.1529C18.7664 21.1367 18.7184 21.1105 18.6769 21.0757C18.6354 21.0409 18.6011 20.9983 18.5761 20.9502C18.5511 20.9022 18.5358 20.8497 18.5311 20.7958C18.5264 20.7418 18.5324 20.6875 18.5488 20.6358C18.8469 19.6914 18.818 18.8968 18.4664 18.2751C17.9304 17.3364 16.8056 17.0663 16.7949 17.063C16.6906 17.0368 16.6007 16.9708 16.5444 16.8792C16.4881 16.7876 16.4699 16.6776 16.4936 16.5727C16.5174 16.4678 16.5813 16.3764 16.6716 16.318C16.7619 16.2596 16.8715 16.2388 16.9769 16.2602C17.037 16.2742 18.459 16.6052 19.1762 17.8576C19.6546 18.6884 19.709 19.707 19.3409 20.8837C19.3143 20.9683 19.261 21.0421 19.1891 21.0941C19.1171 21.146 19.0303 21.1733 18.9416 21.1719Z" fill="#02579E"/>
<path d="M6.16953 17.0439C6.12678 17.0437 6.0843 17.037 6.04354 17.0241C5.94017 16.9907 5.8542 16.9177 5.80438 16.8212C5.75456 16.7246 5.74492 16.6123 5.77758 16.5087C5.78581 16.4815 6.6677 13.8309 9.92926 14.194C10.0378 14.206 10.1371 14.2607 10.2054 14.3459C10.2736 14.4311 10.3052 14.54 10.2932 14.6485C10.2812 14.7571 10.2266 14.8564 10.1413 14.9247C10.0561 14.9929 9.94722 15.0245 9.83869 15.0125C7.26138 14.7259 6.58947 16.6766 6.56147 16.7598C6.53452 16.8425 6.48207 16.9145 6.41166 16.9655C6.34125 17.0166 6.25649 17.044 6.16953 17.0439Z" fill="#02579E"/>
<path d="M8.56642 31.8954C8.06372 31.8917 7.57428 31.7336 7.1645 31.4424C6.75472 31.1512 6.44441 30.741 6.27567 30.2675C6.23745 30.1651 6.24144 30.0518 6.28677 29.9525C6.33209 29.8531 6.41503 29.7758 6.51734 29.7376C6.61965 29.6994 6.73296 29.7034 6.83233 29.7487C6.9317 29.794 7.009 29.8769 7.04721 29.9793C7.4828 31.1436 8.62242 31.0703 8.63394 31.0695C8.74314 31.0612 8.85115 31.0966 8.93423 31.1679C9.01731 31.2393 9.06864 31.3407 9.07694 31.4499C9.08524 31.5591 9.04982 31.6671 8.97848 31.7502C8.90714 31.8332 8.80571 31.8846 8.69652 31.8929C8.6537 31.8954 8.61006 31.8954 8.56642 31.8954Z" fill="#02579E"/>
<path d="M4.75402 31.8953C4.70791 31.8953 4.66426 31.8953 4.62392 31.8903C4.56985 31.8862 4.51712 31.8715 4.46874 31.847C4.42037 31.8225 4.37728 31.7887 4.34196 31.7476C4.30663 31.7065 4.27976 31.6588 4.26286 31.6073C4.24597 31.5557 4.23939 31.5014 4.2435 31.4473C4.24761 31.3933 4.26232 31.3405 4.28681 31.2921C4.3113 31.2438 4.34507 31.2007 4.38621 31.1654C4.42735 31.13 4.47504 31.1032 4.52656 31.0863C4.57808 31.0694 4.63243 31.0628 4.6865 31.0669C5.03256 31.0776 5.37304 30.9777 5.6584 30.7817C5.94377 30.5856 6.15915 30.3036 6.27323 29.9767C6.31144 29.8744 6.38874 29.7914 6.48811 29.7461C6.58748 29.7008 6.70078 29.6968 6.8031 29.735C6.90541 29.7732 6.98835 29.8505 7.03367 29.9499C7.079 30.0493 7.08299 30.1626 7.04477 30.2649C6.87644 30.7389 6.56631 31.1496 6.15649 31.4413C5.74667 31.733 5.25702 31.8915 4.75402 31.8953ZM12.5716 31.8953C12.0688 31.8918 11.5793 31.7337 11.1695 31.4425C10.7597 31.1512 10.4495 30.741 10.2808 30.2674C10.2426 30.165 10.2466 30.0517 10.2919 29.9524C10.3372 29.853 10.4202 29.7757 10.5225 29.7375C10.6248 29.6993 10.7381 29.7033 10.8375 29.7486C10.9368 29.7939 11.0141 29.8768 11.0524 29.9792C11.4879 31.1435 12.6276 31.0702 12.6391 31.0694C12.7483 31.0611 12.8563 31.0965 12.9394 31.1678C13.0225 31.2392 13.0738 31.3406 13.0821 31.4498C13.0904 31.559 13.055 31.667 12.9836 31.7501C12.9123 31.8332 12.8109 31.8845 12.7017 31.8928C12.6613 31.8953 12.6177 31.8953 12.5716 31.8953Z" fill="#02579E"/>
<path d="M8.76157 31.8954C8.71546 31.8954 8.67182 31.8954 8.63147 31.8905C8.52228 31.8825 8.42072 31.8315 8.34915 31.7487C8.27758 31.6658 8.24184 31.5579 8.24981 31.4487C8.25779 31.3395 8.30881 31.238 8.39165 31.1664C8.4745 31.0948 8.58239 31.0591 8.69158 31.0671C9.03809 31.0785 9.37917 30.9789 9.66507 30.7827C9.95096 30.5866 10.1667 30.3043 10.2808 29.9769C10.319 29.8746 10.3963 29.7916 10.4957 29.7463C10.595 29.701 10.7083 29.697 10.8107 29.7352C10.913 29.7734 10.9959 29.8507 11.0412 29.9501C11.0865 30.0495 11.0905 30.1628 11.0523 30.2651C10.884 30.7391 10.5739 31.1498 10.164 31.4415C9.75422 31.7332 9.26457 31.8917 8.76157 31.8954ZM10.7328 35.3538C10.2301 35.3503 9.74062 35.1922 9.33081 34.901C8.921 34.6098 8.61072 34.1995 8.44208 33.7259C8.40387 33.6236 8.40786 33.5103 8.45318 33.4109C8.4985 33.3115 8.58144 33.2343 8.68376 33.196C8.78607 33.1578 8.89937 33.1618 8.99874 33.2071C9.09811 33.2525 9.17541 33.3354 9.21363 33.4377C9.64922 34.6037 10.7897 34.5304 10.8004 34.5304C10.9096 34.5221 11.0176 34.5575 11.1006 34.6288C11.1837 34.7002 11.2351 34.8016 11.2434 34.9108C11.2517 35.02 11.2162 35.128 11.1449 35.2111C11.0736 35.2942 10.9721 35.3455 10.8629 35.3538H10.7328Z" fill="#02579E"/>
<path d="M6.91956 35.3537C6.87427 35.3537 6.83063 35.3537 6.79028 35.3487C6.73622 35.3448 6.68346 35.3302 6.63502 35.3059C6.58658 35.2815 6.5434 35.2479 6.50796 35.2069C6.47252 35.1659 6.44551 35.1183 6.42847 35.0668C6.41142 35.0153 6.40468 34.961 6.40863 34.9069C6.41257 34.8529 6.42713 34.8001 6.45147 34.7517C6.47581 34.7032 6.50945 34.6601 6.55047 34.6246C6.59149 34.5892 6.63909 34.5622 6.69055 34.5451C6.74201 34.5281 6.79633 34.5213 6.85039 34.5253C7.19687 34.5366 7.5379 34.4369 7.82377 34.2408C8.10963 34.0447 8.32539 33.7624 8.43959 33.4351C8.47781 33.3328 8.55511 33.2498 8.65448 33.2045C8.75385 33.1592 8.86715 33.1552 8.96946 33.1934C9.07178 33.2316 9.15472 33.3089 9.20004 33.4083C9.24536 33.5077 9.24935 33.621 9.21114 33.7233C9.04276 34.1974 8.7325 34.6082 8.32252 34.8999C7.91254 35.1916 7.4227 35.35 6.91956 35.3537ZM21.4941 34.2009C21.4054 34.2007 21.3191 34.1719 21.2481 34.1188C21.1771 34.0657 21.1252 33.991 21.1 33.906C21.0748 33.821 21.0778 33.7301 21.1084 33.6469C21.1391 33.5636 21.1958 33.4925 21.2701 33.4441C21.3401 33.398 23.0092 32.3226 24.6412 32.0649C24.6946 32.0565 24.7492 32.0587 24.8018 32.0713C24.8543 32.0839 24.9039 32.1068 24.9476 32.1386C24.9914 32.1704 25.0284 32.2106 25.0567 32.2567C25.0849 32.3028 25.1038 32.354 25.1122 32.4075C25.1206 32.4609 25.1185 32.5154 25.1058 32.568C25.0932 32.6206 25.0703 32.6702 25.0385 32.7139C25.0067 32.7576 24.9666 32.7947 24.9204 32.8229C24.8743 32.8511 24.8231 32.87 24.7697 32.8785C23.3089 33.109 21.7345 34.1243 21.7181 34.1342C21.6516 34.1779 21.5737 34.2011 21.4941 34.2009ZM24.7054 35.7654C24.6239 35.7655 24.5441 35.7414 24.4763 35.6962C24.4085 35.651 24.3556 35.5866 24.3244 35.5113C24.2931 35.436 24.285 35.3531 24.3009 35.2731C24.3169 35.1932 24.3562 35.1197 24.4139 35.0622C24.4518 35.0251 25.3395 34.1391 25.8417 33.72C25.8831 33.6838 25.9312 33.6563 25.9833 33.6391C26.0354 33.6218 26.0905 33.6151 26.1452 33.6194C26.1999 33.6237 26.2532 33.6389 26.302 33.6642C26.3507 33.6894 26.394 33.7241 26.4291 33.7663C26.4643 33.8085 26.4906 33.8572 26.5066 33.9097C26.5226 33.9623 26.528 34.0174 26.5224 34.072C26.5167 34.1267 26.5003 34.1796 26.4739 34.2277C26.4475 34.2759 26.4117 34.3183 26.3687 34.3524C25.8944 34.7476 25.0052 35.6361 24.9969 35.6451C24.9586 35.6834 24.9132 35.7136 24.8631 35.7343C24.8131 35.7549 24.7595 35.7655 24.7054 35.7654ZM27.3083 38.579C27.2426 38.5791 27.1779 38.5633 27.1197 38.5329C27.0227 38.4829 26.9494 38.3965 26.9161 38.2926C26.8827 38.1887 26.892 38.0758 26.9418 37.9787C27.4359 37.0153 27.5051 35.1931 27.5051 35.175C27.5069 35.1209 27.5194 35.0677 27.5417 35.0185C27.5641 34.9692 27.596 34.9249 27.6355 34.8879C27.6751 34.851 27.7215 34.8222 27.7721 34.8032C27.8228 34.7843 27.8767 34.7754 27.9308 34.7773C27.9848 34.7791 28.038 34.7916 28.0872 34.814C28.1365 34.8363 28.1809 34.8682 28.2178 34.9077C28.2547 34.9473 28.2835 34.9937 28.3025 35.0443C28.3215 35.095 28.3303 35.1489 28.3285 35.203C28.3285 35.2853 28.2544 37.2294 27.6739 38.355C27.6394 38.4223 27.587 38.4788 27.5225 38.5183C27.458 38.5579 27.3839 38.5788 27.3083 38.579Z" fill="#02579E"/>
<g clip-path="url(#clip0_966_8035)">
<path d="M60.9215 21.467L62.3157 25.7874H67.0493L61.042 9.15979H55.7404L49.7504 25.7874H54.3462L55.7404 21.467H60.9215ZM58.3396 12.9983L59.8887 18.0933H56.8076L58.3396 12.9983ZM81.2671 12.9122H76.9295V14.5818L76.086 13.2048C75.4319 12.8261 74.1754 12.5851 73.1254 12.5851C69.8205 12.5851 67.0149 15.0638 67.0149 19.6424C67.0149 23.4465 69.1837 26.1317 72.6779 26.1317C73.9861 26.1317 75.2426 25.8562 75.9655 25.3227L76.9295 23.9112V30.5037H81.2671V12.9122ZM74.1754 23.1883C72.6607 23.1883 71.4558 21.8284 71.4558 19.4186C71.4558 16.8023 72.609 15.5285 74.2959 15.5285C75.6041 15.5285 76.9295 16.3892 76.9295 18.9711V19.5219C76.9295 22.2243 75.7762 23.1883 74.1754 23.1883ZM96.6898 12.9122H92.3522V20.1932C92.3522 21.9145 91.5259 23.1883 90.1489 23.1883C88.7891 23.1883 88.2039 22.4653 88.0662 21.226C87.9801 20.5891 87.9629 19.8834 87.9629 19.4703V12.9122H83.6252V20.4342C83.6252 21.467 83.6425 22.2243 83.7457 22.8784C84.0384 24.6341 85.6564 26.1317 88.3071 26.1317C89.4776 26.1317 90.3899 25.8562 91.1989 25.3743L92.3522 23.6186V25.7874H96.6898V12.9122ZM106.828 25.7874H111.08C110.873 24.3587 110.839 23.4981 110.839 22.5342V18.9195C110.839 18.1277 110.804 17.3703 110.753 16.7334C110.563 14.3925 109.169 12.5851 105.09 12.5851C101.836 12.5851 99.1684 14.2892 99.1512 17.3015L103.248 17.2843C103.317 16.1654 103.885 15.5285 104.9 15.5285C105.847 15.5285 106.381 16.0966 106.449 16.7507C106.501 17.1638 106.501 17.422 106.501 17.6974V17.8867H105.675C101.32 17.8867 98.7037 19.5736 98.7037 22.3104C98.7037 24.8063 100.718 26.1317 102.835 26.1317C104.005 26.1317 105.09 25.839 106.019 25.2538L106.536 23.9112L106.828 25.7874ZM104.608 23.1883C103.747 23.1883 103.145 22.7579 103.145 21.9834C103.145 20.7096 104.539 20.1932 106.501 20.3481V21.1916C106.501 22.5342 105.486 23.1883 104.608 23.1883ZM127.604 12.5335V9.15979H112.474V12.5335H117.862V25.7874H122.199V12.5335H127.604ZM135.333 12.5851C134.524 12.5851 133.508 12.9466 132.802 13.7212L131.89 15.5285V12.9122H127.552V25.7874H131.89V21.0711C131.89 17.181 133.078 15.9761 136.331 16.1998V12.654C136.021 12.6024 135.746 12.5851 135.333 12.5851ZM145.213 25.7874H149.464C149.275 24.3587 149.223 23.4981 149.223 22.5342V18.9195C149.223 18.1277 149.189 17.3703 149.155 16.7334C148.948 14.3925 147.554 12.5851 143.492 12.5851C140.238 12.5851 137.553 14.2892 137.536 17.3015L141.633 17.2843C141.701 16.1654 142.287 15.5285 143.285 15.5285C144.232 15.5285 144.765 16.0966 144.834 16.7507C144.886 17.1638 144.886 17.422 144.886 17.6974V17.8867H144.06C139.705 17.8867 137.106 19.5736 137.106 22.3104C137.106 24.8063 139.102 26.1317 141.219 26.1317C142.407 26.1317 143.492 25.839 144.404 25.2538L144.937 23.9112L145.213 25.7874ZM143.01 23.1883C142.132 23.1883 141.529 22.7579 141.529 21.9834C141.529 20.7096 142.924 20.1932 144.886 20.3481V21.1916C144.886 22.5342 143.87 23.1883 143.01 23.1883ZM157.864 12.5851C154.095 12.5851 151.1 15.0638 151.1 19.5047C151.1 23.7391 153.888 26.1317 157.589 26.1317C161.083 26.1317 163.648 24.3932 164.13 21.0711H159.878C159.637 22.4653 158.811 23.1883 157.83 23.1883C156.35 23.1883 155.541 21.9834 155.541 19.2293C155.541 16.7507 156.332 15.5285 157.778 15.5285C158.863 15.5285 159.706 16.1482 159.895 17.8351H164.095C163.975 14.9433 161.651 12.5851 157.864 12.5851ZM171.221 21.0194L174.664 25.7874H180L174.475 18.8162L179.914 12.9122H174.836L170.309 18.317V8.07538H165.972V25.7874H170.309V22.035L171.221 21.0194Z" fill="#02579E"/>
</g>
<defs>
<clipPath id="clip0_966_8035">
<rect width="130.25" height="22.4283" fill="white" transform="translate(49.7504 8.07526)"/>
</clipPath>
</defs>
</svg>
