<svg width="30" height="31" viewBox="0 0 30 31" fill="none" xmlns="http://www.w3.org/2000/svg">
<path d="M11.5625 28L11.0625 24C10.7917 23.8958 10.5367 23.7708 10.2975 23.625C10.0575 23.4792 9.82292 23.3229 9.59375 23.1562L5.875 24.7188L2.4375 18.7812L5.65625 16.3438C5.63542 16.1979 5.625 16.0571 5.625 15.9212V15.0775C5.625 14.9425 5.63542 14.8021 5.65625 14.6562L2.4375 12.2188L5.875 6.28125L9.59375 7.84375C9.82292 7.67708 10.0625 7.52083 10.3125 7.375C10.5625 7.22917 10.8125 7.10417 11.0625 7L11.5625 3H18.4375L18.9375 7C19.2083 7.10417 19.4637 7.22917 19.7038 7.375C19.9429 7.52083 20.1771 7.67708 20.4063 7.84375L24.125 6.28125L27.5625 12.2188L24.3438 14.6562C24.3646 14.8021 24.375 14.9425 24.375 15.0775V15.9212C24.375 16.0571 24.3542 16.1979 24.3125 16.3438L27.5312 18.7812L24.0937 24.7188L20.4063 23.1562C20.1771 23.3229 19.9375 23.4792 19.6875 23.625C19.4375 23.7708 19.1875 23.8958 18.9375 24L18.4375 28H11.5625ZM15.0625 19.875C16.2708 19.875 17.3021 19.4479 18.1562 18.5938C19.0104 17.7396 19.4375 16.7083 19.4375 15.5C19.4375 14.2917 19.0104 13.2604 18.1562 12.4062C17.3021 11.5521 16.2708 11.125 15.0625 11.125C13.8333 11.125 12.7967 11.5521 11.9525 12.4062C11.1092 13.2604 10.6875 14.2917 10.6875 15.5C10.6875 16.7083 11.1092 17.7396 11.9525 18.5938C12.7967 19.4479 13.8333 19.875 15.0625 19.875Z" fill="#0180EA"/>
</svg>
