<svg width="30" height="31" viewBox="0 0 30 31" fill="none" xmlns="http://www.w3.org/2000/svg">
<path d="M6.25 28C5.5625 28 4.97375 27.7554 4.48375 27.2663C3.99458 26.7763 3.75 26.1875 3.75 25.5V11.375C3.39583 11.1458 3.09917 10.8542 2.86 10.5C2.62 10.1458 2.5 9.72917 2.5 9.25V5.5C2.5 4.8125 2.745 4.22375 3.235 3.73375C3.72417 3.24458 4.3125 3 5 3H25C25.6875 3 26.2763 3.24458 26.7663 3.73375C27.2554 4.22375 27.5 4.8125 27.5 5.5V9.25C27.5 9.72917 27.38 10.1458 27.14 10.5C26.9008 10.8542 26.6042 11.1458 26.25 11.375V25.5C26.25 26.1875 26.0054 26.7763 25.5163 27.2663C25.0263 27.7554 24.4375 28 23.75 28H6.25ZM25 9.25V5.5H5V9.25H25ZM12.5 18H17.5C17.8542 18 18.1513 17.88 18.3913 17.64C18.6304 17.4008 18.75 17.1042 18.75 16.75C18.75 16.3958 18.6304 16.0987 18.3913 15.8587C18.1513 15.6196 17.8542 15.5 17.5 15.5H12.5C12.1458 15.5 11.8492 15.6196 11.61 15.8587C11.37 16.0987 11.25 16.3958 11.25 16.75C11.25 17.1042 11.37 17.4008 11.61 17.64C11.8492 17.88 12.1458 18 12.5 18Z" fill="#0180EA"/>
</svg>
