<svg width="30" height="31" viewBox="0 0 30 31" fill="none" xmlns="http://www.w3.org/2000/svg">
<path d="M3.75 19.25C3.04167 19.25 2.44792 19.0104 1.96875 18.5312C1.48958 18.0521 1.25 17.4583 1.25 16.75V5.5C1.25 4.8125 1.48958 4.22375 1.96875 3.73375C2.44792 3.24458 3.04167 3 3.75 3H26.25C26.9375 3 27.5263 3.24458 28.0163 3.73375C28.5054 4.22375 28.75 4.8125 28.75 5.5V16.75C28.75 17.4583 28.5054 18.0521 28.0163 18.5312C27.5263 19.0104 26.9375 19.25 26.25 19.25H3.75ZM3.84375 23.625L3.75 21.75L26.2188 20.5625L26.3125 22.4375L3.84375 23.625ZM3.75 26.7188V24.8438H26.25V26.7188H3.75ZM12.8125 14.875C14.3542 14.875 15.8383 14.6042 17.265 14.0625C18.6925 13.5208 19.9375 12.6875 21 11.5625C21.125 12.4583 21.5833 13.13 22.375 13.5775C23.1667 14.0258 24.0417 14.25 25 14.25V8C24.0417 8 23.1667 8.23958 22.375 8.71875C21.5833 9.19792 21.125 9.875 21 10.75C19.8958 9.66667 18.6408 8.83333 17.235 8.25C15.8283 7.66667 14.3542 7.375 12.8125 7.375C11.1667 7.375 9.58333 7.66667 8.0625 8.25C6.54167 8.83333 5.3125 9.79167 4.375 11.125C5.3125 12.4792 6.54167 13.4425 8.0625 14.015C9.58333 14.5883 11.1667 14.875 12.8125 14.875Z" fill="#0180EA"/>
</svg>
