<svg width="58" height="56" viewBox="0 0 58 56" fill="none" xmlns="http://www.w3.org/2000/svg">
<rect x="0.842651" width="56.37" height="56" rx="15" fill="#00966A" fill-opacity="0.7"/>
<path d="M35.2777 20.5H34.0277V19.25C34.0277 17.875 32.9027 16.75 31.5277 16.75H26.5277C25.1527 16.75 24.0277 17.875 24.0277 19.25V20.5H22.7777C18.6402 20.5 15.2777 23.8625 15.2777 28C15.2777 32.1375 18.6402 35.5 22.7777 35.5V39.25H25.2777V35.5H32.7777V39.25H35.2777V35.5C39.4152 35.5 42.7777 32.1375 42.7777 28C42.7777 23.8625 39.4152 20.5 35.2777 20.5ZM26.5277 19.25H31.5277V20.5H26.5277V19.25Z" fill="white"/>
</svg>
