<svg width="30" height="31" viewBox="0 0 30 31" fill="none" xmlns="http://www.w3.org/2000/svg">
<path d="M13.75 10.5C13.75 13.2625 11.5125 15.5 8.75 15.5C5.9875 15.5 3.75 13.2625 3.75 10.5C3.75 7.7375 5.9875 5.5 8.75 5.5C11.5125 5.5 13.75 7.7375 13.75 10.5ZM13.75 18.9V25.5H0V23C0 20.2375 3.9125 18 8.75 18C10.625 18 12.3375 18.3375 13.75 18.9ZM30 25.5H16.25V4.25H30V25.5ZM20 14.875C20 14.0462 20.3292 13.2513 20.9153 12.6653C21.5013 12.0792 22.2962 11.75 23.125 11.75C23.9538 11.75 24.7487 12.0792 25.3347 12.6653C25.9208 13.2513 26.25 14.0462 26.25 14.875C26.25 15.7038 25.9208 16.4987 25.3347 17.0847C24.7487 17.6708 23.9538 18 23.125 18C22.2962 18 21.5013 17.6708 20.9153 17.0847C20.3292 16.4987 20 15.7038 20 14.875ZM27.5 9.25C26.837 9.25 26.2011 8.98661 25.7322 8.51777C25.2634 8.04893 25 7.41304 25 6.75H21.25C21.25 8.1375 20.1375 9.25 18.75 9.25V20.5C19.413 20.5 20.0489 20.7634 20.5178 21.2322C20.9866 21.7011 21.25 22.337 21.25 23H25C25 21.625 26.125 20.5 27.5 20.5V9.25Z" fill="#0180EA"/>
</svg>
