<svg width="40" height="41" viewBox="0 0 40 41" fill="none" xmlns="http://www.w3.org/2000/svg">
<path d="M5.24199 32.5917C9.61369 30.1207 14.5515 28.8257 19.5732 28.8333C24.7816 28.8333 29.6712 30.1979 33.9045 32.5917M25.8232 16.3333C25.8232 17.9909 25.1648 19.5806 23.9927 20.7528C22.8206 21.9249 21.2308 22.5833 19.5732 22.5833C17.9156 22.5833 16.3259 21.9249 15.1538 20.7528C13.9817 19.5806 13.3232 17.9909 13.3232 16.3333C13.3232 14.6757 13.9817 13.086 15.1538 11.9139C16.3259 10.7418 17.9156 10.0833 19.5732 10.0833C21.2308 10.0833 22.8206 10.7418 23.9927 11.9139C25.1648 13.086 25.8232 14.6757 25.8232 16.3333ZM38.3232 20.5C38.3232 22.9623 37.8383 25.4005 36.896 27.6753C35.9537 29.9502 34.5726 32.0172 32.8315 33.7582C31.0904 35.4993 29.0234 36.8805 26.7486 37.8227C24.4737 38.765 22.0355 39.25 19.5732 39.25C17.111 39.25 14.6728 38.765 12.3979 37.8227C10.1231 36.8805 8.05609 35.4993 6.31499 33.7582C4.57389 32.0172 3.19278 29.9502 2.2505 27.6753C1.30823 25.4005 0.823242 22.9623 0.823242 20.5C0.823242 15.5272 2.79868 10.7581 6.31499 7.24175C9.8313 3.72544 14.6004 1.75 19.5732 1.75C24.5461 1.75 29.3152 3.72544 32.8315 7.24175C36.3478 10.7581 38.3232 15.5272 38.3232 20.5Z" stroke="#02579E" stroke-width="2" stroke-linecap="round" stroke-linejoin="round"/>
</svg>
